<svg xmlns="http://www.w3.org/2000/svg" enable-background="new 0 0 285.16 293.71" viewBox="0 0 285.16 293.71"><path fill="#233163" d="M169.145,209.664c-1.749,1.017-2.626,2.346-2.63,3.677l0.007-2.624        c0.004-1.331,0.881-2.661,2.63-3.677c3.505-2.037,9.219-2.041,12.761,0.004c1.767,1.02,2.654,2.358,2.661,3.695        c-0.003,0.875-0.005,1.749-0.008,2.624c-0.007-1.337-0.893-2.675-2.66-3.695C178.364,207.624,172.65,207.628,169.145,209.664z        " class="color233163 svgShape"/><path fill="#8ca8f7" d="M181.913,208.368c3.535,2.041,3.546,5.351,0.041,7.387c-3.518,2.045-9.233,2.048-12.767,0.008        c-3.541-2.045-3.553-5.355-0.035-7.399C172.657,206.327,178.372,206.323,181.913,208.368z" class="color8ca8f7 svgShape"/><path fill="#b7ceff" d="M177.782,207.024l-11.202,4.686c-0.051,0.451-0.038,0.905,0.112,1.35l13.232-5.535        C179.24,207.302,178.524,207.135,177.782,207.024z" class="colorb7ceff svgShape"/><path fill="#3f528c" d="M182.799,206.529c4.031,2.327,4.04,6.098,0.047,8.419c-4.005,2.327-10.508,2.331-14.539,0.003        c-4.031-2.327-4.053-6.098-0.048-8.425C172.252,204.205,178.768,204.202,182.799,206.529z M169.187,214.44        c3.535,2.041,9.249,2.036,12.767-0.008c3.505-2.037,3.493-5.347-0.041-7.388c-3.541-2.045-9.256-2.041-12.761-0.004        C165.634,209.085,165.646,212.395,169.187,214.44" class="color3f528c svgShape"/><path fill="#233163" d="M182.846,214.948c-4.005,2.327-10.508,2.331-14.539,0.004c-2.025-1.17-3.035-2.702-3.034-4.234        c0-0.003-0.003-0.005-0.003-0.008l-0.007,2.077c-0.004,1.533,1.009,3.07,3.037,4.242c4.031,2.327,10.535,2.324,14.539-0.004        c1.985-1.154,2.981-2.667,2.986-4.182l0.007-2.077c0,0.006-0.007,0.012-0.007,0.018        C185.813,212.294,184.824,213.799,182.846,214.948z" class="color233163 svgShape"/><g fill="#000000" class="color000 svgShape"><path fill="#3f528c" d="M166.566,214.53c0.165-0.096,0.394-0.083,0.646,0.063c0.502,0.29,0.907,0.992,0.905,1.568      c-0.001,0.286-0.102,0.488-0.265,0.583l-1.694,0.984c0.163-0.095,0.264-0.296,0.265-0.583c0.002-0.576-0.404-1.278-0.905-1.568      c-0.252-0.146-0.481-0.159-0.646-0.064L166.566,214.53z" class="color3f528c svgShape"/><path fill="#e576ad" d="M164.352,214.985c0.259-0.15,0.618-0.129,1.014,0.1c0.787,0.454,1.423,1.555,1.42,2.46        c-0.001,0.449-0.16,0.765-0.416,0.914l-12.264,7.127c0.256-0.148,0.414-0.465,0.416-0.914c0.003-0.905-0.633-2.006-1.42-2.46        c-0.396-0.229-0.755-0.25-1.014-0.099L164.352,214.985z" class="colore576ad svgShape"/><path fill="#3f528c" d="M153.486,221.299c0.259-0.15,0.618-0.129,1.014,0.099c0.787,0.454,1.423,1.556,1.42,2.46        c-0.001,0.449-0.16,0.766-0.416,0.914l-1.398,0.813c0.256-0.148,0.414-0.465,0.416-0.914c0.003-0.905-0.633-2.006-1.42-2.46        c-0.396-0.229-0.755-0.25-1.014-0.099L153.486,221.299z" class="color3f528c svgShape"/><path fill="#233163" d="M153.102,222.212c-0.787-0.454-1.427-0.09-1.429,0.815c-0.003,0.904,0.633,2.005,1.42,2.46         c0.787,0.454,1.427,0.09,1.43-0.814C154.525,223.767,153.889,222.666,153.102,222.212z" class="color233163 svgShape"/></g><g fill="#000000" class="color000 svgShape"><path fill="#bcc2cc" d="M242.648,185.931v2.255c0,0.207-0.111,0.388-0.318,0.512l-32.387,18.815        c-1.577,0.913-7.692-1.702-13.032-4.787c-4.607-2.656-8.619-5.658-8.619-7.015l0.014-2.241c0,1.356,4.026,4.344,8.619,7        c5.326,3.071,11.455,5.699,13.019,4.787l32.387-18.83C242.551,186.305,242.648,186.138,242.648,185.931z" class="colorbcc2cc svgShape"/><path fill="#eaeffa" d="M234.026,178.908c5.333,3.079,9.881,6.614,8.31,7.527l-32.391,18.823        c-1.571,0.913-7.689-1.71-13.022-4.789c-5.333-3.079-9.88-6.614-8.31-7.527l32.391-18.823        C222.575,173.207,228.693,175.829,234.026,178.908z" class="coloreaeffa svgShape"/><path fill="#d0d5dd" d="M197.869,198.601c-0.601,0.347-0.604,0.908-0.007,1.254c0.597,0.347,1.565,0.347,2.166,0           c0.592-0.342,0.595-0.903-0.002-1.249C199.429,198.259,198.461,198.259,197.869,198.601z" class="colord0d5dd svgShape"/><path fill="#3f528c" d="M241.611,185.94l-30.436,17.567l-19.599-11.365l30.436-17.589l6.625,3.852          c-0.381,0.212-0.381,0.572,0,0.783l5.143,2.984c0.36,0.234,0.974,0.234,1.355,0L241.611,185.94z" class="color3f528c svgShape"/><path fill="#d0d5dd" d="M229.515,178.489c-0.159,0.092-0.16,0.245,0.007,0.342l4.651,2.703          c0.167,0.097,0.422,0.092,0.581,0c0.168-0.097,0.178-0.245,0.011-0.342l-4.651-2.703          C229.947,178.392,229.683,178.392,229.515,178.489z" class="colord0d5dd svgShape"/><path fill="#8294ed" d="M102.37,57.957c0.799-0.461,1.444-0.086,1.446,0.832l0.07,25.432       c0.003,0.91-0.638,2.028-1.437,2.489l-37.121,21.432c-0.792,0.457-1.444,0.086-1.446-0.824l-0.07-25.432       c-0.003-0.918,0.645-2.039,1.437-2.496L102.37,57.957z M102.445,85.053l-0.07-25.432L65.254,81.052l0.07,25.432L102.445,85.053       L102.445,85.053z" class="color8294ed svgShape"/><polygon fill="#233163" points="102.375 59.621 102.445 85.053 65.324 106.484 65.254 81.052" class="color233163 svgShape"/><path fill="#b7ceff" d="M62.531,81.138l0.071,25.436c0,0.448,0.163,0.773,0.417,0.915l1.28,0.746       c-0.254-0.153-0.417-0.468-0.417-0.915l-0.071-25.437c0-0.915,0.641-2.034,1.434-2.492l37.126-21.432       c0.397-0.234,0.763-0.254,1.017-0.101l-1.28-0.747c-0.264-0.153-0.62-0.132-1.027,0.102L63.965,78.646       C63.172,79.103,62.521,80.222,62.531,81.138z" class="colorb7ceff svgShape"/><path fill="#8294ed" d="M65.32,109.806l22.889,13.356c0.794,0.461,2.075,0.461,2.874,0l37.121-21.432       c0.399-0.23,0.6-0.534,0.599-0.838l0.012,2.406c0.001,0.304-0.2,0.608-0.599,0.839l-37.121,21.432       c-0.799,0.461-2.081,0.461-2.874,0l-22.889-13.356c-0.394-0.229-0.592-0.527-0.592-0.826l-0.012-2.406       C64.728,109.278,64.925,109.577,65.32,109.806z" class="color8294ed svgShape"/><path fill="#b7ceff" d="M65.329,108.141c-0.799,0.461-0.803,1.204-0.009,1.665l22.889,13.356        c0.794,0.461,2.075,0.461,2.874,0l37.121-21.432c0.792-0.457,0.803-1.204,0.009-1.665L105.324,86.71        c-0.794-0.461-2.082-0.458-2.874,0L65.329,108.141z" class="colorb7ceff svgShape"/><path fill="#8ca8f7" d="M91.847,110.634l12.73-7.351c0.524-0.302,1.351-0.302,1.872,0l6.109,3.55       c0.512,0.3,0.518,0.783-0.006,1.086l-12.73,7.349c-0.525,0.302-1.359,0.297-1.872,0l-6.109-3.55       C91.32,111.416,91.323,110.937,91.847,110.634z" class="color8ca8f7 svgShape"/><g fill="#000000" class="color000 svgShape"><polygon fill="#8294ed" points="109.861 96.294 105.945 98.569 104.358 97.653 108.274 95.377" class="color8294ed svgShape"/><polygon fill="#8294ed" points="108.085 92.68 106.421 93.646 104.831 92.728 106.494 91.761" class="color8294ed svgShape"/><polygon fill="#8294ed" points="110.09 93.837 108.427 94.804 106.839 93.888 108.503 92.921" class="color8294ed svgShape"/><polygon fill="#8294ed" points="108.323 90.218 106.656 91.187 105.066 90.268 106.732 89.3" class="color8294ed svgShape"/><polygon fill="#8294ed" points="110.328 91.376 108.662 92.344 107.071 91.426 108.738 90.458" class="color8294ed svgShape"/><polygon fill="#8294ed" points="114.339 93.691 112.672 94.66 109.079 92.586 110.746 91.617" class="color8294ed svgShape"/><polygon fill="#8294ed" points="112.096 94.995 110.432 95.962 108.845 95.046 110.508 94.079" class="color8294ed svgShape"/><polygon fill="#8294ed" points="106.317 89.06 104.651 90.029 103.731 89.498 105.397 88.529" class="color8294ed svgShape"/><polygon fill="#8294ed" points="104.074 90.364 102.41 91.331 101.49 90.8 103.154 89.833" class="color8294ed svgShape"/><polygon fill="#8294ed" points="101.84 91.662 100.167 92.634 99.247 92.103 100.92 91.131" class="color8294ed svgShape"/><polygon fill="#8294ed" points="107.856 95.136 106.183 96.108 104.596 95.191 106.269 94.219" class="color8294ed svgShape"/><polygon fill="#8294ed" points="103.845 92.82 102.172 93.792 100.582 92.874 102.255 91.902" class="color8294ed svgShape"/><polygon fill="#8294ed" points="105.851 93.978 104.178 94.95 102.587 94.032 104.26 93.06" class="color8294ed svgShape"/><polygon fill="#8294ed" points="103.607 95.282 101.935 96.254 100.344 95.335 102.017 94.363" class="color8294ed svgShape"/><polygon fill="#8294ed" points="106.08 91.522 104.416 92.489 102.825 91.57 104.489 90.604" class="color8294ed svgShape"/><polygon fill="#8294ed" points="105.613 96.439 103.94 97.411 102.353 96.495 104.025 95.523" class="color8294ed svgShape"/><polygon fill="#8294ed" points="74.45 109.903 71.947 111.358 70.356 110.439 72.859 108.985" class="color8294ed svgShape"/><polygon fill="#8294ed" points="73.848 107.929 72.184 108.896 71.264 108.365 72.928 107.398" class="color8294ed svgShape"/><polygon fill="#8294ed" points="78.335 105.322 76.662 106.294 75.742 105.763 77.415 104.791" class="color8294ed svgShape"/><polygon fill="#8294ed" points="76.091 106.626 74.428 107.592 73.508 107.061 75.171 106.094" class="color8294ed svgShape"/><polygon fill="#8294ed" points="78.933 107.297 77.26 108.27 75.67 107.351 77.343 106.379" class="color8294ed svgShape"/><polygon fill="#8294ed" points="76.69 108.601 75.017 109.573 73.427 108.655 75.1 107.683" class="color8294ed svgShape"/><polygon fill="#8294ed" points="79.63 113.862 77.954 114.836 76.366 113.92 78.042 112.946" class="color8294ed svgShape"/><polygon fill="#8294ed" points="81.87 112.561 80.197 113.533 78.61 112.616 80.282 111.644" class="color8294ed svgShape"/><polygon fill="#8294ed" points="84.113 111.257 82.44 112.229 80.853 111.312 82.526 110.34" class="color8294ed svgShape"/><polygon fill="#8294ed" points="95.326 104.74 93.654 105.713 92.066 104.796 93.739 103.824" class="color8294ed svgShape"/><polygon fill="#8294ed" points="83.42 104.69 81.747 105.662 80.157 104.744 81.829 103.772" class="color8294ed svgShape"/><polygon fill="#8294ed" points="81.177 105.994 79.504 106.966 77.913 106.048 79.586 105.076" class="color8294ed svgShape"/><polygon fill="#8294ed" points="82.346 107.638 80.673 108.61 79.082 107.691 80.755 106.719" class="color8294ed svgShape"/><polygon fill="#8294ed" points="84.808 108.53 83.135 109.502 81.548 108.585 83.221 107.613" class="color8294ed svgShape"/><polygon fill="#8294ed" points="93.179 105.988 84.684 110.925 83.096 110.009 91.591 105.072" class="color8294ed svgShape"/><polygon fill="#8294ed" points="91.194 104.818 89.522 105.791 87.934 104.874 89.607 103.902" class="color8294ed svgShape"/><polygon fill="#8294ed" points="90.147 100.781 88.474 101.753 86.883 100.835 88.556 99.863" class="color8294ed svgShape"/><polygon fill="#8294ed" points="93.321 103.583 91.648 104.555 90.061 103.638 91.734 102.666" class="color8294ed svgShape"/><polygon fill="#8294ed" points="80.578 104.018 78.902 104.992 77.982 104.461 79.658 103.487" class="color8294ed svgShape"/><polygon fill="#8294ed" points="99.816 102.131 98.137 103.107 96.55 102.19 98.228 101.215" class="color8294ed svgShape"/><polygon fill="#8294ed" points="96.278 94.895 94.605 95.867 93.685 95.336 95.358 94.363" class="color8294ed svgShape"/><polygon fill="#8294ed" points="102.294 98.368 100.621 99.34 99.034 98.424 100.707 97.451" class="color8294ed svgShape"/><polygon fill="#8294ed" points="94.035 96.198 92.362 97.17 91.442 96.639 93.115 95.667" class="color8294ed svgShape"/><polygon fill="#8294ed" points="98.283 96.052 96.611 97.024 95.02 96.106 96.693 95.134" class="color8294ed svgShape"/><polygon fill="#8294ed" points="100.289 97.21 98.616 98.182 97.026 97.264 98.698 96.292" class="color8294ed svgShape"/><polygon fill="#8294ed" points="89.548 98.805 87.875 99.777 86.955 99.246 88.628 98.274" class="color8294ed svgShape"/><polygon fill="#8294ed" points="96.04 97.356 90.717 100.449 89.127 99.531 94.45 96.438" class="color8294ed svgShape"/><polygon fill="#8294ed" points="98.045 98.514 94.127 100.791 92.536 99.873 96.455 97.596" class="color8294ed svgShape"/><polygon fill="#8294ed" points="87.305 100.109 85.632 101.081 84.712 100.55 86.385 99.578" class="color8294ed svgShape"/><polygon fill="#8294ed" points="97.811 100.974 96.132 101.949 94.544 101.033 96.223 100.057" class="color8294ed svgShape"/><polygon fill="#8294ed" points="93.559 101.121 91.886 102.093 90.296 101.175 91.969 100.203" class="color8294ed svgShape"/><polygon fill="#8294ed" points="85.062 101.413 83.389 102.385 82.469 101.854 84.142 100.882" class="color8294ed svgShape"/><polygon fill="#8294ed" points="87.903 102.085 86.231 103.057 84.64 102.138 86.313 101.166" class="color8294ed svgShape"/><polygon fill="#8294ed" points="91.316 102.425 89.643 103.397 88.052 102.479 89.725 101.507" class="color8294ed svgShape"/><polygon fill="#8294ed" points="82.821 102.715 81.146 103.688 80.226 103.157 81.901 102.184" class="color8294ed svgShape"/><polygon fill="#8294ed" points="85.663 103.386 83.987 104.36 82.397 103.442 84.073 102.468" class="color8294ed svgShape"/><polygon fill="#8294ed" points="89.072 103.728 87.4 104.701 85.809 103.782 87.482 102.81" class="color8294ed svgShape"/><g fill="#000000" class="color000 svgShape"><polygon fill="#8294ed" points="86.938 107.292 85.265 108.264 83.678 107.348 85.35 106.376" class="color8294ed svgShape"/></g><g fill="#000000" class="color000 svgShape"><polygon fill="#8294ed" points="86.832 105.03 85.156 106.004 83.566 105.086 85.242 104.112" class="color8294ed svgShape"/><polygon fill="#8294ed" points="89.068 106.054 87.392 107.028 85.804 106.112 87.48 105.138" class="color8294ed svgShape"/></g><g fill="#000000" class="color000 svgShape"><polygon fill="#8294ed" points="80.102 108.941 78.43 109.913 76.839 108.995 78.512 108.023" class="color8294ed svgShape"/><polygon fill="#8294ed" points="82.678 109.768 81.011 110.736 79.424 109.82 81.091 108.851" class="color8294ed svgShape"/><polygon fill="#8294ed" points="77.859 110.245 73.952 112.515 72.362 111.597 76.269 109.327" class="color8294ed svgShape"/><polygon fill="#8294ed" points="80.435 111.071 75.957 113.673 74.37 112.757 78.848 110.155" class="color8294ed svgShape"/></g><g fill="#000000" class="color000 svgShape"><polygon fill="#8294ed" points="84.589 106.334 82.913 107.308 81.323 106.39 82.998 105.416" class="color8294ed svgShape"/></g><g fill="#000000" class="color000 svgShape"><polygon fill="#8294ed" points="71.608 109.231 69.941 110.2 69.021 109.669 70.688 108.7" class="color8294ed svgShape"/></g><g fill="#000000" class="color000 svgShape"><polygon fill="#8294ed" points="104.3 99.526 102.627 100.498 101.039 99.581 102.712 98.609" class="color8294ed svgShape"/></g><g fill="#000000" class="color000 svgShape"><polygon fill="#8294ed" points="102.056 100.829 100.384 101.801 98.796 100.885 100.469 99.913" class="color8294ed svgShape"/></g><g fill="#000000" class="color000 svgShape"><polygon fill="#8294ed" points="99.597 92.966 97.924 93.938 97.004 93.407 98.677 92.435" class="color8294ed svgShape"/></g><g fill="#000000" class="color000 svgShape"><polygon fill="#8294ed" points="101.602 94.124 99.929 95.096 98.339 94.178 100.012 93.205" class="color8294ed svgShape"/></g><g fill="#000000" class="color000 svgShape"><polygon fill="#8294ed" points="91.794 97.5 90.116 98.476 89.196 97.945 90.874 96.969" class="color8294ed svgShape"/></g><g fill="#000000" class="color000 svgShape"><polygon fill="#8294ed" points="97.57 103.437 95.897 104.409 94.31 103.492 95.982 102.52" class="color8294ed svgShape"/></g></g><g fill="#000000" class="color000 svgShape"><path fill="#2d3a74" d="M230.118,167.976l-1.842-0.235c-0.046-0.006-0.092,0.016-0.116,0.057         c-0.024,0.04-0.022,0.091,0.006,0.129l1.092,1.502L230.118,167.976z" class="color2d3a74 svgShape"/><path fill="#e576ad" d="M233.156,168.671l-3.022-0.827c-0.117-0.033-0.259-0.01-0.415,0.077         c-0.383,0.215-0.7,0.751-0.704,1.19c0.001,0.186,0.056,0.327,0.148,0.41l2.166,2.237L233.156,168.671z" class="colore576ad svgShape"/><path fill="#fd93bf" d="M251.222,183.604l-19.843-11.757c-0.235-0.14-0.379-0.435-0.376-0.851            c0.007-0.838,0.607-1.852,1.34-2.265c0.369-0.208,0.702-0.224,0.94-0.082l19.843,11.757            c-0.239-0.142-0.571-0.126-0.94,0.082c-0.734,0.413-1.334,1.427-1.34,2.265            C250.843,183.169,250.987,183.464,251.222,183.604z" class="colorfd93bf svgShape"/><path fill="#3f528c" d="M250.182 182.988l-.593-.351c-.235-.14-.379-.435-.376-.851.007-.838.607-1.852 1.34-2.265.369-.208.702-.224.94-.082l.593.351c-.239-.142-.571-.126-.94.082-.734.413-1.334 1.427-1.34 2.265C249.802 182.553 249.946 182.847 250.182 182.988zM238.731 176.201l-5.869-3.475c-.236-.14-.379-.434-.377-.852.007-.842.606-1.854 1.34-2.264.369-.208.705-.226.94-.087l5.866 3.48c-.236-.139-.568-.127-.932.085-.735.411-1.334 1.423-1.34 2.264C238.352 175.767 238.496 176.061 238.731 176.201z" class="color3f528c svgShape"/><path fill="#d363a1" d="M252.163,183.523c0.734-0.413,1.334-1.427,1.34-2.265c0.007-0.838-0.583-1.182-1.316-0.769           c-0.734,0.413-1.334,1.427-1.34,2.265C250.84,183.591,251.429,183.935,252.163,183.523z" class="colord363a1 svgShape"/><g fill="#000000" class="color000 svgShape"><path fill="#2d3a74" d="M253.77,184.195l-1.966-1.17c-0.135-0.08-0.218-0.25-0.216-0.489          c0.004-0.481,0.348-1.063,0.77-1.301c0.212-0.119,0.403-0.129,0.54-0.047l1.966,1.17c-0.137-0.081-0.328-0.072-0.54,0.047          c-0.421,0.237-0.766,0.819-0.77,1.3C253.553,183.946,253.635,184.115,253.77,184.195z" class="color2d3a74 svgShape"/><path fill="#3f528c" d="M254.31,184.148c0.421-0.237,0.766-0.819,0.77-1.301c0.004-0.481-0.335-0.679-0.756-0.442         c-0.421,0.237-0.766,0.819-0.77,1.3C253.551,184.188,253.889,184.385,254.31,184.148z" class="color3f528c svgShape"/></g><g fill="#000000" class="color000 svgShape"><path fill="#233163" d="M245.759,176.007l-0.347,0.202c0.058-0.034,0.102-0.094,0.125-0.176l0.347-0.202         C245.861,175.913,245.817,175.973,245.759,176.007z" class="color233163 svgShape"/><path fill="#3f528c" d="M251.303,179.658l-0.348,0.194c0-0.542-0.362-1.183-0.835-1.447l-5.679-3.286         c-0.014,0-0.028-0.014-0.042-0.014l0.306-0.195c0.028-0.013,0.056,0,0.083,0.014l5.693,3.271         C250.927,178.475,251.303,179.115,251.303,179.658z" class="color3f528c svgShape"/><path fill="#2d3a74" d="M250.126,178.408c0.46,0.265,0.836,0.91,0.835,1.446l-0.239-0.138         c0.001-0.383-0.269-0.844-0.596-1.033l-4.589-2.65c-0.057,0.206-0.247,0.271-0.467,0.144         c-0.227-0.131-0.409-0.41-0.465-0.682l-0.164-0.094c-0.063-0.036-0.119-0.134-0.119-0.206c0-0.079,0.057-0.105,0.12-0.068         L250.126,178.408z" class="color2d3a74 svgShape"/></g></g><g fill="#000000" class="color000 svgShape"><path fill="#c49494" d="M231.986,154.852v1.645c0,0.754-0.496,1.507-1.489,2.089l-89.51,52           c-2.003,1.165-5.239,1.165-7.259,0l-63.583-36.705c-1.01-0.582-1.507-1.353-1.507-2.123v-1.645           c0,0.771,0.514,1.541,1.524,2.123l63.566,36.705c2.02,1.164,5.273,1.164,7.276,0l89.493-52.018           C231.49,156.359,231.986,155.606,231.986,154.852z" class="colorc49494 svgShape"/><path fill="#e7b8b5" d="M230.464,152.723c2.022,1.167,2.033,3.048,0.035,4.209l-89.501,52.012           c-1.998,1.161-5.245,1.161-7.267-0.006l-63.571-36.703c-2.011-1.161-2.022-3.042-0.024-4.203l89.501-52.012           c1.998-1.161,5.245-1.161,7.256,0L230.464,152.723z" class="colore7b8b5 svgShape"/><path fill="#c49494" d="M231.986,150.306v1.645c0,0.754-0.496,1.507-1.489,2.089l-89.51,52           c-2.003,1.164-5.239,1.164-7.259,0l-63.583-36.705c-1.01-0.582-1.507-1.352-1.507-2.123v-1.645           c0,0.771,0.514,1.541,1.524,2.123l63.566,36.705c2.02,1.164,5.273,1.164,7.276,0l89.493-52.018           C231.49,151.813,231.986,151.059,231.986,150.306z" class="colorc49494 svgShape"/><path fill="#e7b8b5" d="M230.464,148.177c2.022,1.167,2.033,3.048,0.035,4.209l-89.501,52.012           c-1.998,1.161-5.245,1.161-7.267-0.006l-63.571-36.703c-2.011-1.161-2.022-3.042-0.024-4.203l89.501-52.012           c1.998-1.161,5.245-1.161,7.256,0L230.464,148.177z" class="colore7b8b5 svgShape"/><g fill="#000000" class="color000 svgShape"><polygon fill="#d0d5dd" points="229.288 144.462 229.276 149.333 137.365 202.746 137.377 197.876" class="colord0d5dd svgShape"/><polygon fill="#d9dfe8" points="137.377 197.876 137.365 202.746 71.356 164.635 71.368 159.766" class="colord9dfe8 svgShape"/><polygon fill="#eaeffa" points="229.288 144.462 137.377 197.876 71.368 159.766 163.28 106.352" class="coloreaeffa svgShape"/></g><g fill="#000000" class="color000 svgShape"><path fill="#233163" d="M82.248,156.136c-1.003,0.579-1.008,1.516-0.012,2.096c0.997,0.579,2.615,0.579,3.618,0            c0.989-0.571,0.994-1.508-0.003-2.087C84.855,155.565,83.237,155.565,82.248,156.136z" class="color233163 svgShape"/><path fill="#3f528c" d="M84.486,158.616c0.074-0.318,0.193-0.592,0.193-0.978c0.007-2.716-1.91-6.033-4.267-7.395          c-1.197-0.692-2.278-0.756-3.056-0.303l-0.635,0.369c0.779-0.453,1.86-0.389,3.056,0.303          c2.357,1.362,4.274,4.679,4.268,7.395c0,0.255-0.094,0.419-0.127,0.644C84.11,158.658,84.295,158.636,84.486,158.616z" class="color3f528c svgShape"/><path fill="#3f528c" d="M76.612,152.982c0.007-1.19,0.425-2.024,1.103-2.415l-0.634,0.369          c-0.677,0.389-1.096,1.225-1.096,2.415c-0.003,1.041,0.326,2.178,0.859,3.232l0.634-0.369          C76.943,155.161,76.612,154.025,76.612,152.982z" class="color3f528c svgShape"/><path fill="#233163" d="M90.769,151.184c-1.003,0.579-1.008,1.517-0.012,2.096c0.997,0.579,2.615,0.579,3.618,0            c0.989-0.571,0.994-1.508-0.003-2.087C93.375,150.614,91.757,150.614,90.769,151.184z" class="color233163 svgShape"/><path fill="#3f528c" d="M93.006,153.665c0.074-0.318,0.193-0.593,0.193-0.978c0.007-2.716-1.91-6.033-4.267-7.395          c-1.197-0.692-2.278-0.756-3.056-0.303l-0.635,0.369c0.779-0.454,1.86-0.389,3.056,0.303          c2.357,1.362,4.274,4.679,4.267,7.395c0,0.255-0.094,0.419-0.127,0.644C92.63,153.706,92.815,153.685,93.006,153.665z" class="color3f528c svgShape"/><path fill="#3f528c" d="M85.133,148.031c0.007-1.19,0.425-2.024,1.103-2.415l-0.634,0.369          c-0.677,0.389-1.096,1.225-1.096,2.415c-0.003,1.041,0.325,2.178,0.859,3.232l0.633-0.369          C85.463,150.209,85.133,149.074,85.133,148.031z" class="color3f528c svgShape"/><path fill="#233163" d="M99.289,146.233c-1.003,0.579-1.008,1.516-0.012,2.096s2.614,0.579,3.618,0            c0.989-0.571,0.994-1.508-0.003-2.087C101.895,145.662,100.277,145.662,99.289,146.233z" class="color233163 svgShape"/><path fill="#3f528c" d="M101.526,148.714c0.074-0.318,0.193-0.593,0.193-0.978c0.007-2.716-1.91-6.033-4.267-7.395          c-1.196-0.692-2.278-0.756-3.056-0.303l-0.635,0.369c0.779-0.454,1.86-0.389,3.056,0.303          c2.357,1.362,4.275,4.679,4.268,7.395c0,0.255-0.094,0.419-0.127,0.644C101.151,148.755,101.335,148.733,101.526,148.714z" class="color3f528c svgShape"/><path fill="#3f528c" d="M93.653,143.079c0.007-1.19,0.425-2.024,1.103-2.415l-0.635,0.369          c-0.677,0.389-1.095,1.225-1.095,2.415c-0.003,1.041,0.325,2.178,0.859,3.232l0.633-0.369          C93.983,145.258,93.653,144.122,93.653,143.079z" class="color3f528c svgShape"/><path fill="#233163" d="M107.809,141.282c-1.003,0.579-1.008,1.516-0.012,2.096s2.615,0.579,3.618,0            c0.989-0.571,0.994-1.508-0.003-2.087C110.416,140.711,108.798,140.711,107.809,141.282z" class="color233163 svgShape"/><path fill="#3f528c" d="M110.046,143.762c0.074-0.318,0.193-0.593,0.193-0.978c0.007-2.716-1.91-6.033-4.267-7.395          c-1.197-0.692-2.278-0.756-3.056-0.303l-0.634,0.369c0.778-0.453,1.86-0.389,3.056,0.303          c2.357,1.362,4.275,4.679,4.268,7.395c0,0.255-0.094,0.419-0.127,0.644C109.671,143.803,109.855,143.782,110.046,143.762z" class="color3f528c svgShape"/><path fill="#3f528c" d="M102.173,138.128c0.007-1.19,0.425-2.024,1.103-2.415l-0.634,0.369          c-0.677,0.389-1.095,1.225-1.095,2.415c-0.003,1.041,0.325,2.178,0.859,3.232l0.633-0.369          C102.504,140.306,102.173,139.171,102.173,138.128z" class="color3f528c svgShape"/><g fill="#000000" class="color000 svgShape"><path fill="#233163" d="M116.329,136.33c-1.003,0.579-1.008,1.516-0.012,2.096c0.996,0.579,2.614,0.579,3.618,0            c0.988-0.571,0.994-1.508-0.003-2.087C118.936,135.76,117.318,135.759,116.329,136.33z" class="color233163 svgShape"/><path fill="#3f528c" d="M118.567,138.811c0.074-0.318,0.193-0.592,0.193-0.978c0.007-2.716-1.91-6.033-4.267-7.395          c-1.197-0.692-2.278-0.756-3.056-0.303l-0.635,0.369c0.779-0.453,1.86-0.389,3.056,0.303          c2.357,1.362,4.274,4.679,4.267,7.395c0,0.255-0.094,0.419-0.127,0.644C118.191,138.852,118.376,138.831,118.567,138.811z" class="color3f528c svgShape"/><path fill="#3f528c" d="M110.693,133.177c0.007-1.19,0.425-2.024,1.103-2.415l-0.634,0.369          c-0.677,0.389-1.096,1.225-1.096,2.415c-0.003,1.041,0.325,2.178,0.859,3.232l0.633-0.369          C111.024,135.355,110.693,134.219,110.693,133.177z" class="color3f528c svgShape"/></g><g fill="#000000" class="color000 svgShape"><path fill="#233163" d="M124.85,131.379c-1.003,0.579-1.008,1.517-0.012,2.096c0.997,0.579,2.614,0.579,3.618,0            c0.989-0.571,0.994-1.508-0.003-2.087C127.456,130.808,125.838,130.808,124.85,131.379z" class="color233163 svgShape"/><path fill="#3f528c" d="M127.087,133.859c0.074-0.318,0.193-0.593,0.193-0.978c0.007-2.716-1.91-6.033-4.267-7.395          c-1.197-0.692-2.278-0.756-3.056-0.303l-0.635,0.369c0.779-0.453,1.86-0.389,3.056,0.303          c2.357,1.362,4.275,4.679,4.267,7.395c0,0.255-0.094,0.419-0.127,0.644C126.711,133.9,126.896,133.879,127.087,133.859z" class="color3f528c svgShape"/><path fill="#3f528c" d="M119.214,128.225c0.007-1.19,0.425-2.024,1.103-2.415l-0.634,0.369          c-0.677,0.389-1.095,1.225-1.095,2.415c-0.003,1.041,0.325,2.178,0.859,3.232l0.633-0.369          C119.544,130.403,119.214,129.268,119.214,128.225z" class="color3f528c svgShape"/></g><g fill="#000000" class="color000 svgShape"><path fill="#233163" d="M133.37,126.427c-1.003,0.579-1.008,1.516-0.012,2.095c0.997,0.579,2.615,0.579,3.618,0            c0.989-0.571,0.994-1.508-0.003-2.087C135.976,125.857,134.359,125.856,133.37,126.427z" class="color233163 svgShape"/><path fill="#3f528c" d="M135.607,128.908c0.074-0.318,0.193-0.592,0.193-0.978c0.007-2.716-1.91-6.033-4.267-7.395          c-1.197-0.692-2.278-0.756-3.056-0.303l-0.634,0.369c0.778-0.453,1.86-0.389,3.056,0.303          c2.357,1.362,4.275,4.679,4.268,7.395c0,0.255-0.094,0.419-0.127,0.644C135.232,128.949,135.416,128.928,135.607,128.908z" class="color3f528c svgShape"/><path fill="#3f528c" d="M127.734,123.274c0.007-1.19,0.425-2.024,1.103-2.415l-0.635,0.369          c-0.677,0.389-1.095,1.225-1.095,2.415c-0.003,1.041,0.326,2.178,0.859,3.232l0.633-0.369          C128.065,125.452,127.734,124.316,127.734,123.274z" class="color3f528c svgShape"/></g><g fill="#000000" class="color000 svgShape"><path fill="#233163" d="M141.89,121.476c-1.003,0.579-1.008,1.517-0.012,2.096c0.997,0.579,2.614,0.579,3.618,0            c0.988-0.571,0.993-1.508-0.003-2.087C144.497,120.905,142.879,120.905,141.89,121.476z" class="color233163 svgShape"/><path fill="#3f528c" d="M144.128,123.956c0.074-0.318,0.193-0.593,0.193-0.978c0.007-2.716-1.91-6.033-4.267-7.395          c-1.197-0.692-2.278-0.756-3.056-0.303l-0.635,0.369c0.779-0.453,1.86-0.389,3.056,0.303          c2.357,1.362,4.274,4.679,4.268,7.395c0,0.255-0.094,0.419-0.127,0.644C143.752,123.998,143.936,123.976,144.128,123.956z" class="color3f528c svgShape"/><path fill="#3f528c" d="M136.254,118.322c0.007-1.19,0.425-2.024,1.103-2.415l-0.635,0.369          c-0.677,0.389-1.095,1.225-1.095,2.415c-0.003,1.041,0.325,2.178,0.859,3.232l0.633-0.369          C136.585,120.5,136.254,119.365,136.254,118.322z" class="color3f528c svgShape"/></g><g fill="#000000" class="color000 svgShape"><path fill="#233163" d="M150.41,116.524c-1.003,0.579-1.008,1.516-0.012,2.096c0.997,0.579,2.614,0.579,3.618,0            c0.989-0.571,0.994-1.508-0.003-2.087C153.017,115.954,151.399,115.954,150.41,116.524z" class="color233163 svgShape"/><path fill="#3f528c" d="M152.648,119.005c0.074-0.318,0.193-0.592,0.193-0.978c0.007-2.716-1.91-6.033-4.267-7.395          c-1.197-0.692-2.278-0.756-3.056-0.303l-0.635,0.369c0.779-0.453,1.86-0.389,3.056,0.303          c2.357,1.362,4.275,4.679,4.267,7.395c0,0.255-0.094,0.419-0.127,0.644C152.272,119.046,152.457,119.025,152.648,119.005z" class="color3f528c svgShape"/><path fill="#3f528c" d="M144.774,113.371c0.007-1.19,0.425-2.024,1.103-2.415l-0.635,0.369          c-0.677,0.389-1.096,1.225-1.096,2.415c-0.003,1.041,0.326,2.178,0.859,3.232l0.633-0.369          C145.105,115.549,144.774,114.414,144.774,113.371z" class="color3f528c svgShape"/></g><g fill="#000000" class="color000 svgShape"><path fill="#233163" d="M158.931,111.573c-1.003,0.579-1.008,1.517-0.012,2.096c0.997,0.579,2.615,0.579,3.618,0            c0.989-0.571,0.994-1.508-0.003-2.087C161.537,111.002,159.919,111.002,158.931,111.573z" class="color233163 svgShape"/><path fill="#3f528c" d="M161.168,114.053c0.074-0.318,0.193-0.593,0.193-0.978c0.007-2.716-1.91-6.033-4.267-7.395          c-1.197-0.692-2.278-0.756-3.056-0.303l-0.635,0.369c0.779-0.453,1.86-0.389,3.056,0.303          c2.357,1.362,4.275,4.679,4.268,7.395c0,0.255-0.094,0.419-0.127,0.644C160.793,114.095,160.977,114.073,161.168,114.053z" class="color3f528c svgShape"/><path fill="#3f528c" d="M153.295,108.419c0.007-1.19,0.425-2.024,1.103-2.415l-0.634,0.369          c-0.678,0.389-1.096,1.225-1.096,2.415c-0.003,1.041,0.325,2.178,0.859,3.232l0.633-0.369          C153.625,110.598,153.295,109.462,153.295,108.419z" class="color3f528c svgShape"/></g><g fill="#000000" class="color000 svgShape"><path fill="#2d3a74" d="M79.774 150.609c-2.366-1.365-4.295-.271-4.303 2.448-.004 1.205.379 2.523 1.008 3.739l.364-.21c-.535-1.056-.864-2.193-.861-3.236.007-2.388 1.706-3.357 3.791-2.153 2.08 1.202 3.768 4.125 3.762 6.516-.001.323-.039.614-.099.884.182.027.362.06.548.063.028-.21.062-.417.062-.652C84.052 155.288 82.135 151.971 79.774 150.609zM88.294 145.658c-2.366-1.365-4.295-.271-4.303 2.448-.004 1.205.379 2.522 1.008 3.739l.364-.21c-.535-1.056-.864-2.193-.861-3.236.007-2.388 1.706-3.357 3.791-2.153 2.08 1.202 3.768 4.125 3.762 6.516-.001.323-.039.614-.099.884.182.027.361.059.548.063.029-.21.062-.417.062-.652C92.573 150.337 90.655 147.02 88.294 145.658zM96.815 140.706c-2.366-1.365-4.295-.271-4.303 2.448-.003 1.205.379 2.522 1.008 3.739l.364-.21c-.535-1.056-.864-2.193-.861-3.236.007-2.388 1.706-3.357 3.791-2.153 2.08 1.202 3.768 4.124 3.762 6.516-.001.323-.039.614-.099.884.182.026.361.06.548.063.029-.21.062-.417.062-.652C101.093 145.385 99.176 142.068 96.815 140.706zM105.335 135.755c-2.366-1.365-4.295-.271-4.303 2.448-.004 1.205.379 2.522 1.008 3.739l.364-.21c-.535-1.056-.864-2.193-.861-3.236.007-2.388 1.706-3.356 3.791-2.153 2.08 1.202 3.768 4.125 3.762 6.516-.001.323-.039.614-.099.884.182.027.362.06.548.063.028-.21.062-.417.062-.652C109.613 140.434 107.696 137.117 105.335 135.755zM113.855 130.803c-2.366-1.365-4.295-.271-4.303 2.448-.004 1.205.379 2.522 1.008 3.739l.364-.21c-.535-1.056-.864-2.193-.861-3.236.007-2.388 1.706-3.357 3.791-2.153 2.08 1.202 3.768 4.125 3.762 6.516-.001.323-.039.614-.099.884.182.027.361.06.548.063.029-.21.062-.417.062-.652C118.134 135.482 116.216 132.165 113.855 130.803zM122.375 125.852c-2.366-1.366-4.295-.271-4.303 2.448-.003 1.205.379 2.522 1.008 3.739l.364-.21c-.535-1.056-.864-2.193-.861-3.236.007-2.388 1.706-3.357 3.791-2.153 2.08 1.202 3.768 4.125 3.762 6.516-.001.323-.039.614-.099.884.182.027.361.06.548.063.029-.21.062-.417.062-.652C126.654 130.531 124.736 127.214 122.375 125.852zM130.896 120.9c-2.366-1.365-4.295-.271-4.303 2.448-.004 1.205.379 2.522 1.008 3.739l.364-.21c-.535-1.056-.864-2.193-.861-3.236.007-2.388 1.706-3.357 3.791-2.153 2.08 1.202 3.768 4.124 3.762 6.516-.001.323-.039.614-.099.884.182.027.362.06.548.063.028-.21.061-.417.062-.652C135.174 125.579 133.257 122.262 130.896 120.9zM139.416 115.949c-2.365-1.366-4.295-.271-4.303 2.448-.004 1.205.379 2.522 1.008 3.739l.364-.21c-.535-1.056-.864-2.193-.861-3.236.007-2.388 1.706-3.356 3.791-2.153 2.08 1.202 3.768 4.125 3.762 6.516-.001.323-.039.614-.099.884.182.026.361.06.548.063.029-.21.062-.417.062-.652C143.694 120.628 141.777 117.311 139.416 115.949zM147.936 110.997c-2.366-1.365-4.296-.271-4.303 2.448-.003 1.205.379 2.522 1.008 3.739l.364-.21c-.535-1.056-.864-2.193-.861-3.236.007-2.388 1.706-3.357 3.791-2.153 2.08 1.202 3.768 4.125 3.762 6.516-.001.323-.039.614-.099.884.182.026.361.06.548.063.029-.21.062-.417.062-.652C152.215 115.676 150.297 112.36 147.936 110.997zM156.456 106.046c-2.365-1.366-4.295-.271-4.303 2.448-.004 1.205.379 2.522 1.008 3.739l.364-.21c-.535-1.056-.864-2.193-.861-3.236.007-2.388 1.706-3.356 3.791-2.153 2.08 1.202 3.768 4.125 3.762 6.516-.001.323-.039.614-.099.884.182.026.361.06.548.063.028-.21.062-.417.062-.652C160.735 110.725 158.817 107.408 156.456 106.046z" class="color2d3a74 svgShape"/></g></g><g fill="#000000" class="color000 svgShape"><polygon fill="#d9dfe8" points="163.014 145.322 160.772 146.625 139.485 134.335 141.728 133.032" class="colord9dfe8 svgShape"/><polygon fill="#d9dfe8" points="168.004 142.422 165.776 143.717 144.49 131.427 146.718 130.132" class="colord9dfe8 svgShape"/><polygon fill="#d9dfe8" points="158.009 148.231 155.781 149.525 134.495 137.235 136.722 135.941" class="colord9dfe8 svgShape"/><polygon fill="#d9dfe8" points="141.331 150.181 139.103 151.476 124.499 143.044 126.727 141.75" class="colord9dfe8 svgShape"/><polygon fill="#d9dfe8" points="153.018 151.131 150.776 152.434 129.49 140.144 131.732 138.841" class="colord9dfe8 svgShape"/><polygon fill="#d9dfe8" points="136.34 153.081 134.112 154.376 119.509 145.945 121.737 144.65" class="colord9dfe8 svgShape"/><polygon fill="#d9dfe8" points="131.35 155.981 129.108 157.284 114.504 148.853 116.746 147.55" class="colord9dfe8 svgShape"/><polygon fill="#d9dfe8" points="126.345 158.89 124.117 160.184 109.514 151.753 111.741 150.459" class="colord9dfe8 svgShape"/><polygon fill="#d9dfe8" points="128.008 165.648 115.814 172.734 94.557 160.462 106.751 153.375" class="colord9dfe8 svgShape"/><g fill="#000000" class="color000 svgShape"><polygon fill="#d9dfe8" points="192.931 156.813 175.702 166.825 154.431 154.544 171.659 144.532" class="colord9dfe8 svgShape"/><polygon fill="#d9dfe8" points="172.94 168.43 170.712 169.725 143.31 153.905 145.538 152.61" class="colord9dfe8 svgShape"/><polygon fill="#d9dfe8" points="167.949 171.331 165.721 172.625 138.32 156.805 140.548 155.51" class="colord9dfe8 svgShape"/><polygon fill="#d9dfe8" points="162.959 174.231 160.717 175.534 133.316 159.714 135.558 158.411" class="colord9dfe8 svgShape"/><polygon fill="#d9dfe8" points="157.954 177.14 155.726 178.434 128.325 162.614 130.552 161.319" class="colord9dfe8 svgShape"/><polygon fill="#d9dfe8" points="152.963 180.04 150.721 181.343 129.449 169.061 131.692 167.758" class="colord9dfe8 svgShape"/><polygon fill="#d9dfe8" points="147.973 182.94 145.731 184.243 124.459 171.961 126.701 170.658" class="colord9dfe8 svgShape"/><polygon fill="#d9dfe8" points="142.968 185.848 140.74 187.143 119.469 174.861 121.697 173.567" class="colord9dfe8 svgShape"/></g></g></g><g fill="#000000" class="color000 svgShape"><path fill="#8ccfb1" d="M49.615,121.314l9.778-5.645c0.522-0.301,0.996-0.329,1.338-0.131l17.055,9.911          c-0.342-0.199-0.815-0.171-1.338,0.131l-9.778,5.645c-1.038,0.6-1.878,2.053-1.874,3.246          c0.001,0.593,0.211,1.01,0.548,1.206l-17.055-9.912c-0.338-0.196-0.547-0.614-0.549-1.206          C47.737,123.368,48.577,121.914,49.615,121.314z" class="color8ccfb1 svgShape"/><path fill="#73bc9c" d="M64.796,134.472c0.002,0.593,0.211,1.01,0.549,1.206l-17.055-9.912           c-0.338-0.196-0.547-0.614-0.549-1.206c-0.003-0.934,0.514-2.022,1.236-2.741l17.055,9.912           C65.31,132.451,64.793,133.538,64.796,134.472z" class="color73bc9c svgShape"/><path fill="#60ad88" d="M66.67,131.226c-1.038,0.6-1.878,2.053-1.874,3.246c0.003,1.193,0.848,1.674,1.886,1.075           l9.778-5.645c1.038-0.599,1.878-2.053,1.874-3.246c-0.003-1.193-0.848-1.674-1.886-1.075L66.67,131.226z" class="color60ad88 svgShape"/><path fill="#233163" d="M65.839,135.472c0.201,0,0.435-0.074,0.677-0.213l9.778-5.645           c0.928-0.536,1.71-1.89,1.708-2.957c-0.002-0.627-0.267-1.001-0.71-1.001c-0.201,0-0.435,0.074-0.677,0.213l-9.778,5.645           c-0.928,0.536-1.71,1.89-1.708,2.957C65.131,135.098,65.396,135.472,65.839,135.472z" class="color233163 svgShape"/><path fill="#8ca8f7" d="M67.134,132.37c0.235-0.136,0.426-0.027,0.427,0.243c0.001,0.27-0.189,0.599-0.424,0.734            c-0.235,0.136-0.426,0.027-0.427-0.243C66.709,132.834,66.899,132.506,67.134,132.37z" class="color8ca8f7 svgShape"/><path fill="#fd93bf" d="M68.482,131.584c0.235-0.136,0.426-0.027,0.427,0.243c0.001,0.27-0.189,0.599-0.424,0.734            c-0.235,0.136-0.426,0.027-0.427-0.243C68.057,132.049,68.247,131.72,68.482,131.584z" class="colorfd93bf svgShape"/><path fill="#3f528c" d="M66.101,134.844l9.778-5.646c0.928-0.536,1.71-1.89,1.708-2.957            c-0.001-0.217-0.035-0.401-0.095-0.553c0.321,0.099,0.509,0.443,0.511,0.968c0.003,1.067-0.779,2.421-1.708,2.957            l-9.778,5.645c-0.242,0.139-0.476,0.213-0.677,0.213c-0.289,0-0.501-0.162-0.615-0.448            c0.062,0.019,0.127,0.033,0.199,0.033C65.625,135.057,65.859,134.983,66.101,134.844z" class="color3f528c svgShape"/><g fill="#000000" class="color000 svgShape"><polygon fill="#e7b8b5" points="76.175 127.073 76.177 127.869 74.118 129.058 74.116 128.261" class="colore7b8b5 svgShape"/></g><g fill="#000000" class="color000 svgShape"><path fill="#60ad88" d="M68.446,126.713l-0.738-1.582l-0.616,0.356l-4.267-2.48h2.859l0.768,0.446l-0.384,0.222       l1.355,0.787l1.364-0.787l-1.355-0.787l-0.383,0.221l-1.013-0.589l-4.048,0.001l-1.871-1.088       c0.279-0.34,0.181-0.757-0.301-1.038c-0.616-0.358-1.619-0.358-2.239,0c-0.622,0.359-0.625,0.94-0.009,1.298       c0.483,0.281,1.204,0.338,1.791,0.178l1.064,0.619l-0.011,2.041l0.814,0.473c-0.113,0.195-0.048,0.417,0.219,0.572       c0.374,0.217,0.982,0.216,1.358-0.001c0.376-0.217,0.379-0.569,0.006-0.787c-0.267-0.155-0.65-0.195-0.987-0.129l-0.569-0.33       l0.008-1.353l5.074,2.949l-0.616,0.356L68.446,126.713z" class="color60ad88 svgShape"/></g></g><g fill="#000000" class="color000 svgShape"><path fill="#60ad88" d="M136.708,73.152l0.008,2.71c0,0.131,0.086,0.262,0.257,0.361l-0.008-2.71           C136.794,73.414,136.708,73.283,136.708,73.152z" class="color60ad88 svgShape"/><polygon fill="#8ccfb1" points="136.965 73.513 136.973 76.224 142.421 73.078 142.413 70.368" class="color8ccfb1 svgShape"/><path fill="#8ccfb1" d="M136.969,72.786c-0.347,0.2-0.348,0.527-0.004,0.727l5.448-3.145           c-0.344-0.2-0.909-0.2-1.262,0.004L136.969,72.786z" class="color8ccfb1 svgShape"/><g fill="#000000" class="color000 svgShape"><polygon fill="#d363a1" points="155.9 85.303 155.912 88.006 162.704 84.084 162.693 81.38" class="colord363a1 svgShape"/><polygon fill="#233163" points="162.612 86.866 162.623 88.292 164.073 87.454 164.062 86.028" class="color233163 svgShape"/><path fill="#fd93bf" d="M136.76,73.632c-0.255,0.147-0.256,0.392,0.004,0.543l19.139,11.122l6.792-3.922           l-19.138-11.122c-0.26-0.151-0.683-0.151-0.945,0l-0.198,0.114l-5.448,3.145L136.76,73.632z" class="colorfd93bf svgShape"/><path fill="#e576ad" d="M136.572,73.901v2.715c0,0.1,0.066,0.188,0.199,0.266l19.14,11.125l-0.011-2.704           l-19.14-11.125C136.639,74.1,136.572,74,136.572,73.901z" class="colore576ad svgShape"/></g><g fill="#000000" class="color000 svgShape"><polygon fill="#2d3a74" points="156.325 85.838 156.332 87.264 162.623 88.292 162.612 86.866" class="color2d3a74 svgShape"/><polygon fill="#d363a1" points="162.8 87.017 162.807 87.898 164.233 88.727 164.225 87.845" class="colord363a1 svgShape"/><polygon fill="#e576ad" points="164.225 87.845 164.233 88.727 164.715 87.772 164.708 86.89" class="colore576ad svgShape"/></g><g fill="#000000" class="color000 svgShape"><path fill="#e576ad" d="M133.484,85.443v2.715c0,0.166,0.111,0.321,0.321,0.454l6.106,3.546l-0.011-2.715           l-6.095-3.546C133.584,85.775,133.484,85.609,133.484,85.443z" class="colore576ad svgShape"/><polygon fill="#d363a1" points="139.902 89.444 139.909 92.154 146.701 88.232 146.694 85.523" class="colord363a1 svgShape"/><path fill="#fd93bf" d="M133.805,84.992c-0.432,0.249-0.434,0.658-0.005,0.907l6.101,3.546l6.792-3.921           l-6.101-3.546c-0.429-0.249-1.134-0.249-1.566,0L133.805,84.992z" class="colorfd93bf svgShape"/><g fill="#000000" class="color000 svgShape"><polygon fill="#e576ad" points="146.363 86.098 146.368 88.041 146.368 88.041 144.687 87.065" class="colore576ad svgShape"/><polygon fill="#fd93bf" points="146.368 88.041 140.241 91.579 140.235 89.635 144.687 87.065" class="colorfd93bf svgShape"/></g></g><g fill="#000000" class="color000 svgShape"><polygon fill="#3f528c" points="162.322 82.375 156.325 85.837 162.612 86.866 164.062 86.028" class="color3f528c svgShape"/><polygon fill="#fd93bf" points="162.799 87.017 162.8 87.017 164.225 87.845 164.708 86.89 163.866 86.401" class="colorfd93bf svgShape"/></g></g><g fill="#000000" class="color000 svgShape"><path fill="#d0d5dd" d="M58.015,152.754H36.433C42.408,149.354,51.997,149.347,58.015,152.754z" class="colord0d5dd svgShape"/><path fill="#eaeffa" d="M58.14,152.058c6.042,3.488,6.073,9.147,0.061,12.641c-6.002,3.488-15.772,3.488-21.814,0        c-6.052-3.494-6.083-9.153-0.081-12.641C42.318,148.564,52.089,148.564,58.14,152.058z" class="coloreaeffa svgShape"/><path fill="#d0d5dd" d="M58.201,164.699c-6.002,3.488-15.772,3.489-21.814,0c-2.916-1.684-4.42-3.87-4.539-6.074        c-0.222,2.459,1.285,4.962,4.541,6.841c6.039,3.486,15.806,3.486,21.81,0c3.158-1.835,4.652-4.275,4.474-6.679v-0.198        C62.595,160.805,61.114,163.006,58.201,164.699z" class="colord0d5dd svgShape"/><path fill="#bcc2cc" d="M52.112,156.571c2.695,1.556,2.709,4.08,0.027,5.638c-2.677,1.556-7.034,1.556-9.729,0        c-2.699-1.558-2.713-4.082-0.036-5.638C45.055,155.013,49.413,155.012,52.112,156.571z" class="colorbcc2cc svgShape"/><path fill="#eaeffa" d="M30.877,141.971c0.005-1.748,0.552-2.991,1.389-3.476l0.792-0.46          c-0.836,0.486-1.384,1.728-1.389,3.476c-0.008,2.919,1.499,6.169,3.351,7.238l-0.003,0.915l-0.792,0.46l0.003-0.915          C32.376,148.14,30.868,144.89,30.877,141.971z" class="coloreaeffa svgShape"/><path fill="#eaeffa" d="M31.706,137.53l0.792-0.46c0.707-0.411,1.593-0.387,2.554,0.167          c2.296,1.326,4.154,5.19,4.145,8.621l-0.792,0.46c0.01-3.43-1.848-7.295-4.145-8.621          C33.3,137.142,32.413,137.119,31.706,137.53z" class="coloreaeffa svgShape"/><g fill="#000000" class="color000 svgShape"><path fill="#bcc2cc" d="M34.26,137.697c-2.297-1.326-4.17,0.384-4.18,3.814c-0.01,3.423,1.848,7.287,4.145,8.613          l0.003-0.915c-1.852-1.069-3.359-4.318-3.351-7.238c0.008-2.919,1.529-4.428,3.381-3.359          c1.851,1.069,3.359,4.326,3.351,7.246l0.797,0.46C38.414,142.887,36.556,139.023,34.26,137.697z" class="colorbcc2cc svgShape"/></g><g fill="#000000" class="color000 svgShape"><path fill="#d0d5dd" d="M32.994,145.502c0,8.683,6.389,15.723,14.271,15.723c7.881,0,14.271-7.04,14.271-15.723H32.994        z" class="colord0d5dd svgShape"/><path fill="#eaeffa" d="M57.305,139.668c5.578,3.22,5.607,8.445,0.057,11.671c-5.542,3.22-14.562,3.221-20.14,0         c-5.587-3.226-5.616-8.451-0.075-11.671C42.698,136.443,51.718,136.443,57.305,139.668z" class="coloreaeffa svgShape"/></g><g fill="#000000" class="color000 svgShape"><path fill="#c49494" d="M56.259,143.039c-4.996-2.775-13.098-2.775-18.06,0c-1.826,1.021-3.011,2.304-3.425,3.71       l-0.135,0.458c0.551,1.253,1.693,2.444,3.455,3.423c5.093,2.829,13.33,2.829,18.39,0c1.728-0.966,2.849-2.138,3.394-3.373       l-0.134-0.456C59.326,145.374,58.121,144.073,56.259,143.039z" class="colorc49494 svgShape"/><path fill="#d0d5dd" d="M56.432,140.377c-5.102-2.834-13.338-2.834-18.407,0c-3.312,1.852-4.43,4.456-3.387,6.83       l0.135-0.458c0.415-1.406,1.599-2.689,3.425-3.71c4.962-2.775,13.065-2.775,18.06,0c1.862,1.034,3.066,2.335,3.484,3.762       l0.134,0.456C60.93,144.87,59.789,142.242,56.432,140.377z" class="colord0d5dd svgShape"/></g><g fill="#000000" class="color000 svgShape"><path fill="#ddacab" d="M45.668,151.49c-1.496-0.208-2.98-0.553-4.254-1.165c-0.641-0.297-1.22-0.67-1.657-1.117       c-0.438-0.443-0.718-0.971-0.724-1.511c-0.007-0.54,0.264-1.07,0.696-1.516c0.432-0.449,1.008-0.825,1.648-1.122       c1.273-0.612,2.757-0.959,4.253-1.164c1.504-0.195,3.053-0.23,4.576-0.084c1.528,0.121,3.029,0.446,4.412,0.98       c-1.323-0.619-2.835-0.993-4.374-1.187c-1.543-0.191-3.125-0.194-4.681-0.033c-0.777,0.083-1.551,0.207-2.298,0.406       c-0.752,0.183-1.477,0.438-2.158,0.753c-0.683,0.311-1.316,0.709-1.808,1.209c-0.491,0.494-0.828,1.114-0.825,1.761       c0.015,0.647,0.36,1.261,0.857,1.752c0.497,0.496,1.131,0.891,1.815,1.201c0.681,0.315,1.406,0.569,2.158,0.752       c0.746,0.199,1.521,0.321,2.297,0.407c1.556,0.161,3.137,0.162,4.68-0.028c1.539-0.192,3.052-0.564,4.374-1.186       c-1.381,0.537-2.883,0.86-4.411,0.981C48.721,151.723,47.172,151.685,45.668,151.49z" class="colorddacab svgShape"/><path fill="#ddacab" d="M55.182,146.224c-0.48-0.383-1.057-0.665-1.651-0.9c-1.208-0.441-2.505-0.709-3.818-0.805       c-1.311-0.109-2.635-0.092-3.933,0.057c-1.294,0.154-2.573,0.437-3.713,0.919c1.194-0.395,2.462-0.63,3.747-0.713       c1.281-0.104,2.577-0.084,3.845,0.06c1.265,0.143,2.514,0.395,3.642,0.827c0.553,0.225,1.079,0.493,1.492,0.832       c0.412,0.336,0.693,0.753,0.704,1.184c0.005,0.431-0.267,0.852-0.673,1.19c-0.407,0.341-0.929,0.612-1.482,0.839       c-1.125,0.436-2.375,0.686-3.639,0.829c-1.267,0.145-2.564,0.163-3.845,0.059c-1.285-0.084-2.553-0.318-3.748-0.711       c1.142,0.48,2.42,0.763,3.714,0.918c1.298,0.148,2.622,0.167,3.933,0.059c1.313-0.097,2.611-0.365,3.817-0.81       c0.594-0.236,1.169-0.522,1.645-0.909c0.47-0.381,0.838-0.9,0.837-1.469C56.032,147.112,55.657,146.601,55.182,146.224z" class="colorddacab svgShape"/><path fill="#ddacab" d="M44.284,146.545c0.574-0.285,1.258-0.45,1.949-0.558c0.696-0.101,1.418-0.129,2.132-0.072       c0.718,0.038,1.424,0.178,2.092,0.409c-1.235-0.624-2.808-0.793-4.29-0.658c-0.747,0.067-1.49,0.237-2.161,0.539       c-0.336,0.148-0.648,0.345-0.898,0.593c-0.249,0.245-0.427,0.559-0.434,0.893c-0.002,0.334,0.172,0.651,0.419,0.899       c0.248,0.25,0.559,0.448,0.895,0.597c0.671,0.301,1.414,0.473,2.161,0.539c1.483,0.134,3.054-0.04,4.291-0.661       c-0.669,0.229-1.374,0.369-2.092,0.408c-0.713,0.057-1.435,0.03-2.132-0.071c-0.692-0.107-1.375-0.272-1.948-0.557       c-0.576-0.268-1.042-0.691-1.035-1.15C43.235,147.233,43.707,146.813,44.284,146.545z" class="colorddacab svgShape"/></g></g><g fill="#000000" class="color000 svgShape"><polygon fill="#60ad88" points="100.723 208.321 70.005 190.357 71.256 192.124 101.974 210.088" class="color60ad88 svgShape"/><polygon fill="#73bc9c" points="101.975 205.12 71.257 187.155 70.005 190.357 100.723 208.321" class="color73bc9c svgShape"/><polygon fill="#8ccfb1" points="74.054 185.895 71.258 187.156 101.976 205.12 104.772 203.859" class="color8ccfb1 svgShape"/><polygon fill="#e7b8b5" points="104.772 203.859 110.02 211.031 101.975 205.12" class="colore7b8b5 svgShape"/><polygon fill="#d19f9f" points="101.975 205.12 110.02 211.031 100.723 208.321" class="colord19f9f svgShape"/><polygon fill="#c49494" points="101.974 210.088 110.02 211.031 100.723 208.321" class="colorc49494 svgShape"/><polygon fill="#3f528c" points="108.003 208.274 110.02 211.031 106.976 208.794" class="color3f528c svgShape"/><polygon fill="#2d3a74" points="106.976 208.794 110.02 211.031 106.491 210.002" class="color2d3a74 svgShape"/><polygon fill="#233163" points="106.835 210.657 110.02 211.031 106.491 210.002" class="color233163 svgShape"/><g fill="#000000" class="color000 svgShape"><polygon fill="#233163" points="73.754 192.548 70.005 190.357 71.256 192.124 75.004 194.315" class="color233163 svgShape"/><polygon fill="#2d3a74" points="75.006 189.347 71.257 187.155 70.005 190.357 73.754 192.548" class="color2d3a74 svgShape"/><polygon fill="#3f528c" points="74.054 185.895 71.258 187.156 75.006 189.347 77.802 188.087" class="color3f528c svgShape"/></g></g><g fill="#000000" class="color000 svgShape"><path fill="#a5acb7" d="M242.112,108.796l-24.173,14.048c-0.719,0.419-1.883,0.426-2.601,0.007l-22.688-13.676        c0,0-7.686-9.047-7.427-9.519l-1.224,2.209c-0.26,0.473-0.166,1.118,0.306,1.657l6.801,7.776l24.219,14.807        c0.725,0.419,1.889,0.412,2.608,0l24.173-14.048c0.353-0.213,0.532-0.479,0.539-0.752l0.007-3.253        C242.651,108.316,242.471,108.589,242.112,108.796z" class="colora5acb7 svgShape"/><path fill="#3f528c" d="M185.527,101.313l6.976,7.783l26.773-15.559l-6.801-7.783           c-0.645-0.739-1.756-1.005-2.475-0.585L185.66,99.217C184.941,99.63,184.881,100.575,185.527,101.313z" class="color3f528c svgShape"/><path fill="#eaeffa" d="M242.109,107.29c0.722,0.417,0.722,1.091,0.004,1.508l-24.174,14.048          c-0.717,0.417-1.882,0.419-2.604,0.003l-22.833-13.753l26.774-15.559L242.109,107.29z" class="coloreaeffa svgShape"/><path fill="#ddacab" d="M221.665,96.707c0.117,0.067,0.122,0.176,0.001,0.246l-9.447,5.49         c-0.112,0.065-0.308,0.067-0.425,0l-2.331-1.346c-0.121-0.07-0.118-0.183-0.006-0.248l9.447-5.49         c0.12-0.07,0.308-0.068,0.429,0.002L221.665,96.707z" class="colorddacab svgShape"/><polygon fill="#c49494" points="219.52 98.201 219.088 98.451 216.326 96.857 216.758 96.606" class="colorc49494 svgShape"/><polygon fill="#c49494" points="217.158 99.573 216.726 99.824 213.965 98.229 214.396 97.979" class="colorc49494 svgShape"/><polygon fill="#c49494" points="214.8 100.943 214.369 101.194 211.607 99.6 212.039 99.349" class="colorc49494 svgShape"/><g fill="#000000" class="color000 svgShape"><path fill="#a5acb7" d="M210.08 113.735v.548c0 .074-.05.124-.1.174l-2.814 1.618c-.15.1-.399.1-.573 0l-2.167-1.269c-.075-.05-.125-.1-.125-.15v-.548c0 .05.05.125.125.175l2.167 1.245c.174.1.423.1.573 0l2.814-1.62C210.055 113.86 210.08 113.809 210.08 113.735zM213.308 116.377L210.514 118c-.16.093-.419.093-.572 0l-2.182-1.257c-.08-.047-.12-.107-.12-.166v-.539c0 .06.04.12.12.16l2.182 1.264c.16.087.413.093.579 0l2.794-1.623c.073-.046.113-.106.113-.166l-.007.546C213.421 116.277 213.388 116.337 213.308 116.377zM208.455 112.235v-.545c0 .06.04.119.12.166l2.182 1.264c.16.086.413.086.566 0l2.801-1.63c.08-.04.113-.1.113-.16v.539c0 .06-.04.12-.113.166l-2.801 1.624c-.153.093-.406.093-.566 0l-2.182-1.257C208.494 112.355 208.455 112.295 208.455 112.235zM216.648 118.306l-2.794 1.623c-.16.093-.412.093-.572 0l-2.182-1.257c-.08-.047-.12-.106-.12-.166l.007-.539c0 .06.04.119.113.16l2.182 1.264c.16.093.413.093.572 0l2.794-1.63c.08-.04.12-.1.12-.16v.539C216.768 118.2 216.728 118.26 216.648 118.306zM214.668 115.049l2.794-1.63c.08-.04.12-.1.12-.16l-.007.545c0 .06-.033.113-.113.16l-2.794 1.623c-.16.093-.419.093-.572 0l-2.182-1.257c-.08-.046-.12-.107-.12-.166v-.545c0 .06.04.119.12.166l2.182 1.264C214.256 115.136 214.509 115.142 214.668 115.049zM215.813 112.062c-.08-.046-.12-.106-.12-.166l.007-.545c0 .06.04.12.12.166l2.182 1.264c.153.086.413.093.572 0l2.794-1.623c.08-.047.113-.107.113-.166v.546c0 .06-.04.113-.113.16l-2.801 1.623c-.153.093-.413.093-.572 0L215.813 112.062zM220.107 119.53l-.007.539c0 .06-.033.12-.113.166l-2.794 1.623c-.16.093-.412.093-.572 0l-2.182-1.257c-.08-.047-.12-.106-.12-.166v-.546c0 .06.04.12.12.166l2.182 1.264c.16.086.412.086.572-.007l2.794-1.623C220.068 119.644 220.107 119.59 220.107 119.53zM216.258 107.698l.007-.546c0 .06.04.12.113.166l2.189 1.264c.153.087.406.087.565 0l2.794-1.63c.08-.04.12-.1.12-.16v.539c0 .06-.04.12-.12.166l-2.794 1.623c-.16.093-.412.093-.572 0l-2.182-1.257C216.298 107.817 216.258 107.758 216.258 107.698zM212.36 109.966v-.546c0 .06.04.12.12.166l2.182 1.264c.153.087.413.087.566 0l2.801-1.63c.073-.04.113-.1.113-.16v.539c0 .06-.04.119-.12.166l-2.794 1.623c-.16.093-.413.093-.566 0l-2.189-1.257C212.4 110.086 212.36 110.026 212.36 109.966zM215.134 116.094v-.545c0 .06.04.119.12.166l2.182 1.264c.16.086.412.086.572 0l2.794-1.63c.08-.047.12-.1.12-.16v.539c0 .06-.04.12-.12.166l-2.801 1.623c-.153.093-.406.093-.565 0l-2.182-1.257C215.174 116.214 215.134 116.154 215.134 116.094zM221.9 110.512c.16.087.419.093.572 0l2.801-1.623c.073-.046.113-.106.113-.166v.546c0 .06-.04.113-.113.16l-2.801 1.623c-.153.093-.413.093-.572 0l-2.182-1.257c-.08-.047-.12-.107-.12-.166v-.546c0 .06.04.12.12.166L221.9 110.512zM232.066 112.574v.546c0 .06-.04.119-.12.166l-2.794 1.623c-.16.093-.412.093-.565 0l-2.189-1.264c-.08-.04-.113-.1-.113-.16v-.545c0 .06.04.119.12.166l2.182 1.257c.153.093.412.093.565 0l2.801-1.623C232.026 112.694 232.066 112.634 232.066 112.574zM221.341 115.249l-2.182-1.257c-.08-.047-.12-.107-.12-.166v-.546c0 .06.04.12.12.166l2.182 1.264c.16.087.412.087.565 0l2.801-1.63c.08-.047.12-.1.12-.16l-.007.539c0 .06-.04.12-.113.166l-2.801 1.623C221.754 115.342 221.501 115.342 221.341 115.249zM224.262 117.112l-.007.545c0 .06-.033.12-.113.16l-2.801 1.63c-.153.093-.406.093-.566 0l-2.182-1.264c-.08-.04-.12-.1-.12-.16v-.546c0 .06.04.12.12.166l2.182 1.257c.16.093.413.093.572 0l2.794-1.623C224.222 117.231 224.262 117.172 224.262 117.112zM225.247 112.441c.16.086.412.086.565 0l2.801-1.63c.073-.047.113-.1.113-.16v.539c0 .06-.04.12-.113.166l-2.801 1.623c-.153.093-.412.093-.565 0l-2.182-1.257c-.08-.047-.12-.106-.12-.166v-.546c0 .06.04.12.12.166L225.247 112.441zM228.161 114.843v.545c0 .06-.04.12-.113.16l-2.801 1.63c-.153.093-.413.093-.566 0l-2.182-1.264c-.08-.04-.12-.1-.12-.16v-.546c0 .06.04.12.12.166l2.182 1.257c.16.093.413.093.566 0l2.801-1.623C228.127 114.963 228.161 114.903 228.161 114.843z" class="colora5acb7 svgShape"/></g><g fill="#000000" class="color000 svgShape"><path fill="#ffffff" d="M226.009 99.088c.089.052.09.135.005.184l-3.047 1.771c-.089.051-.233.052-.322 0l-2.035-1.175c-.085-.049-.085-.133.003-.184l3.047-1.771c.084-.049.228-.049.313 0L226.009 99.088zM222.106 101.357c.089.051.09.135.005.184l-3.051 1.773c-.085.049-.228.049-.318-.002l-2.035-1.175c-.085-.049-.085-.132-.001-.181l3.051-1.773c.085-.049.228-.049.313 0L222.106 101.357zM217.468 104.052c.089.051.09.135.005.184l-3.047 1.771c-.089.051-.232.051-.322 0l-2.035-1.175c-.085-.049-.086-.132.003-.184l3.047-1.771c.084-.049.229-.049.313 0L217.468 104.052zM213.564 106.32c.089.052.089.135.005.184l-3.051 1.773c-.084.049-.228.049-.318-.002l-2.035-1.175c-.085-.049-.085-.133-.001-.182l3.051-1.773c.084-.049.228-.049.313 0L213.564 106.32z" class="colorfff svgShape"/><path fill="#8ccfb1" d="M230.469 101.663c.157.091.158.238.002.329l-2.798 1.626c-.156.091-.41.091-.568 0l-2.183-1.261c-.157-.091-.158-.238-.002-.329l2.798-1.626c.156-.091.41-.091.567 0L230.469 101.663zM226.566 103.932c.157.091.158.238.002.329l-2.798 1.626c-.156.091-.41.091-.567 0l-2.183-1.26c-.157-.091-.158-.238-.002-.329l2.798-1.626c.156-.091.41-.091.567 0L226.566 103.932zM233.808 103.591c.157.091.162.24.006.331l-2.798 1.626c-.156.091-.414.088-.572-.002l-2.183-1.261c-.157-.091-.158-.238-.002-.329l2.798-1.626c.156-.091.41-.091.567 0L233.808 103.591z" class="color8ccfb1 svgShape"/><path fill="#ffffff" d="M229.904,105.859c0.157,0.091,0.162,0.24,0.006,0.331l-2.798,1.626          c-0.156,0.091-0.414,0.088-0.572-0.002l-2.183-1.261c-0.157-0.091-0.158-0.238-0.002-0.329l2.798-1.626          c0.156-0.091,0.41-0.091,0.567,0L229.904,105.859z" class="colorfff svgShape"/><path fill="#8ccfb1" d="M240.49,107.448c0.157,0.091,0.158,0.238,0.002,0.329l-2.798,1.626          c-0.156,0.091-0.41,0.091-0.567,0l-5.522-3.188c-0.157-0.091-0.158-0.238-0.002-0.329l2.798-1.626          c0.156-0.091,0.41-0.091,0.567,0L240.49,107.448z" class="color8ccfb1 svgShape"/><path fill="#ffffff" d="M233.247,107.789c0.157,0.091,0.158,0.238,0.002,0.329l-2.798,1.626          c-0.156,0.091-0.41,0.091-0.567,0l-2.183-1.26c-0.157-0.091-0.158-0.238-0.002-0.329l2.798-1.626          c0.156-0.091,0.41-0.091,0.567,0L233.247,107.789z" class="colorfff svgShape"/><path fill="#bcc2cc" d="M213.571 106.507c.04-.027.06-.06.06-.093v.545c0 .033-.02.067-.06.086l-3.054 1.776c-.087.047-.226.047-.319-.007l-2.036-1.171c-.04-.027-.06-.06-.06-.093v-.545c0 .033.02.066.066.093l2.029 1.178c.093.053.24.046.319 0L213.571 106.507zM217.476 104.238c.04-.027.06-.06.06-.093v.546c0 .033-.02.067-.067.087l-3.047 1.77c-.087.053-.233.053-.319 0l-2.036-1.171c-.04-.027-.06-.06-.06-.093v-.539c0 .034.02.067.06.086l2.036 1.178c.093.053.233.053.326 0L217.476 104.238zM220.543 100.32l.007-.539c0 .033.02.06.06.086l2.036 1.178c.087.046.233.046.319 0l3.047-1.77c.047-.027.067-.06.067-.093v.545c0 .033-.027.06-.067.087l-3.047 1.77c-.086.053-.233.053-.319 0l-2.036-1.171C220.57 100.386 220.543 100.353 220.543 100.32zM222.106 102.083l-3.047 1.776c-.087.047-.226.047-.319-.007l-2.036-1.171c-.04-.027-.06-.06-.06-.093v-.545c0 .033.02.066.066.093l2.029 1.178c.093.047.233.047.319 0l3.054-1.769c.04-.027.06-.06.06-.093v.545C222.173 102.029 222.153 102.056 222.106 102.083z" class="colorbcc2cc svgShape"/><path fill="#60ad88" d="M224.921 102.355l2.182 1.264c.16.087.413.087.572 0l2.794-1.63c.08-.04.12-.1.12-.16v.539c0 .06-.04.12-.12.166l-2.794 1.623c-.16.093-.413.093-.572 0l-2.182-1.257c-.08-.047-.12-.106-.12-.166v-.545C224.801 102.249 224.841 102.309 224.921 102.355zM226.564 104.804l-2.794 1.623c-.16.093-.413.093-.566 0l-2.189-1.257c-.08-.046-.113-.106-.113-.166v-.545c0 .06.04.119.12.166l2.182 1.264c.153.086.413.086.566 0l2.801-1.63c.073-.04.113-.1.113-.16v.539C226.684 104.697 226.644 104.757 226.564 104.804z" class="color60ad88 svgShape"/><path fill="#bcc2cc" d="M229.91,106.733l-2.801,1.623c-0.153,0.093-0.413,0.093-0.572,0l-2.182-1.264          c-0.08-0.04-0.12-0.1-0.12-0.16l0.007-0.546c0,0.06,0.04,0.12,0.113,0.166l2.189,1.257c0.153,0.093,0.413,0.093,0.566,0.007          l2.801-1.63c0.08-0.04,0.113-0.1,0.113-0.16v0.545C230.023,106.627,229.983,106.686,229.91,106.733z" class="colorbcc2cc svgShape"/><path fill="#60ad88" d="M230.442 105.542c.16.093.419.093.572.007l2.801-1.63c.073-.04.113-.1.113-.16v.546c0 .053-.04.113-.113.16l-2.801 1.623c-.153.093-.412.093-.572 0l-2.182-1.257c-.08-.046-.12-.106-.12-.166v-.545c0 .06.04.12.12.166L230.442 105.542zM240.608 107.611v.545c0 .06-.04.12-.12.16l-2.794 1.63c-.16.086-.413.086-.572 0l-5.522-3.187c-.08-.047-.113-.107-.113-.166v-.546c0 .06.04.12.12.166l5.522 3.187c.153.093.406.093.566 0l2.794-1.623C240.568 107.731 240.608 107.671 240.608 107.611z" class="color60ad88 svgShape"/><path fill="#bcc2cc" d="M236.703 109.88v.546c0 .06-.04.12-.12.16l-2.794 1.63c-.16.087-.413.087-.566 0l-2.189-1.264c-.073-.046-.113-.107-.113-.166v-.539c0 .06.04.12.12.166l2.182 1.257c.16.093.412.093.566 0l2.801-1.623C236.663 110 236.703 109.94 236.703 109.88zM233.25 108.662l-2.801 1.623c-.153.093-.413.093-.566 0l-2.182-1.257c-.08-.047-.12-.107-.12-.166v-.546c0 .06.04.12.12.166l2.182 1.264c.16.087.413.087.566 0l2.801-1.63c.08-.047.113-.1.113-.16v.539C233.363 108.556 233.323 108.616 233.25 108.662z" class="colorbcc2cc svgShape"/><g fill="#000000" class="color000 svgShape"><path fill="#ffffff" d="M236.586,109.717c0.157,0.091,0.158,0.238,0.002,0.329l-2.798,1.626          c-0.156,0.091-0.41,0.091-0.567,0l-2.183-1.261c-0.157-0.091-0.158-0.238-0.002-0.329l2.798-1.626          c0.156-0.091,0.41-0.091,0.567,0L236.586,109.717z" class="colorfff svgShape"/></g></g><g fill="#000000" class="color000 svgShape"><path fill="#fd93bf" d="M209.661,108.589c0.089,0.052,0.09,0.135,0.005,0.184l-3.051,1.773          c-0.084,0.049-0.228,0.049-0.317-0.002l-2.035-1.175c-0.085-0.049-0.085-0.132-0.001-0.181l3.051-1.773          c0.085-0.049,0.228-0.049,0.313,0L209.661,108.589z" class="colorfd93bf svgShape"/><path fill="#d363a1" d="M205.577 111.095v.546c0 .033-.027.067-.066.087l-3.047 1.776c-.087.046-.233.046-.319 0l-2.036-1.178c-.047-.027-.066-.06-.066-.093v-.539c0 .034.026.067.066.087l2.036 1.177c.086.053.233.053.319 0l3.047-1.769C205.557 111.161 205.577 111.128 205.577 111.095zM209.725 108.682v.546c0 .033-.02.06-.06.086l-3.054 1.776c-.08.047-.226.047-.313-.007l-2.036-1.171c-.047-.027-.067-.06-.067-.093v-.545c0 .034.02.067.067.093l2.036 1.177c.086.047.233.047.313 0l3.054-1.77C209.705 108.749 209.725 108.716 209.725 108.682z" class="colord363a1 svgShape"/><g fill="#000000" class="color000 svgShape"><path fill="#fd93bf" d="M205.507,111.003c0.089,0.051,0.094,0.132,0.005,0.184l-3.047,1.771          c-0.089,0.051-0.233,0.052-0.322,0l-2.035-1.175c-0.085-0.049-0.085-0.132,0.003-0.184l3.047-1.771          c0.089-0.051,0.228-0.049,0.313,0L205.507,111.003z" class="colorfd93bf svgShape"/></g></g><g fill="#000000" class="color000 svgShape"><path fill="#d0d5dd" d="M221.928 106.627c.157.091.158.238.002.329l-2.798 1.626c-.156.091-.41.091-.567 0l-2.183-1.26c-.157-.091-.158-.238-.002-.329l2.798-1.626c.156-.091.41-.091.567 0L221.928 106.627zM218.024 108.895c.157.091.158.238.002.329l-2.798 1.626c-.156.091-.41.091-.567 0l-2.183-1.26c-.157-.091-.158-.238-.002-.329l2.798-1.626c.156-.091.41-.091.567 0L218.024 108.895zM214.121 111.164c.157.091.158.238.002.329l-2.798 1.626c-.156.091-.41.091-.567 0l-2.183-1.26c-.157-.091-.158-.238-.002-.329l2.798-1.626c.156-.091.41-.091.567 0L214.121 111.164zM209.967 113.578c.157.091.158.238.002.329l-2.794 1.623c-.161.093-.415.093-.572.003l-2.183-1.261c-.157-.091-.158-.238.002-.331l2.794-1.624c.156-.091.41-.091.567 0L209.967 113.578zM225.266 108.554c.157.091.162.24.006.331l-2.798 1.626c-.156.091-.415.088-.572-.002l-2.183-1.261c-.157-.091-.158-.238-.002-.329l2.798-1.626c.156-.091.41-.091.568 0L225.266 108.554zM221.363 110.823c.157.091.162.24.006.331l-2.798 1.626c-.156.091-.414.088-.572-.002l-2.183-1.261c-.157-.091-.158-.238-.002-.329l2.798-1.626c.156-.091.41-.091.567 0L221.363 110.823zM217.459 113.091c.157.091.162.24.006.331l-2.798 1.626c-.156.091-.414.088-.572-.002l-2.183-1.26c-.157-.091-.158-.238-.002-.329l2.798-1.626c.156-.091.41-.091.567 0L217.459 113.091zM213.305 115.506c.157.091.162.24.006.331l-2.794 1.624c-.16.093-.419.091-.576 0l-2.183-1.26c-.157-.091-.158-.238.003-.331l2.794-1.623c.156-.091.41-.091.567 0L213.305 115.506zM228.609 110.484c.157.091.158.238.002.329l-2.798 1.626c-.156.091-.41.091-.567 0l-2.183-1.261c-.157-.091-.158-.238-.002-.329l2.798-1.626c.156-.091.41-.091.567 0L228.609 110.484zM224.706 112.753c.157.091.158.238.002.329l-2.798 1.626c-.156.091-.41.091-.567 0l-2.183-1.261c-.157-.091-.158-.238-.002-.329l2.798-1.626c.156-.091.41-.091.567 0L224.706 112.753zM220.802 115.021c.157.091.158.238.002.329l-2.798 1.626c-.156.091-.41.091-.567 0l-2.183-1.26c-.157-.091-.158-.238-.002-.329l2.798-1.626c.156-.091.41-.091.567 0L220.802 115.021zM216.648 117.436c.157.091.158.238.002.329l-2.794 1.624c-.161.093-.415.093-.572.003l-2.183-1.261c-.157-.091-.158-.238.003-.331l2.794-1.623c.156-.091.41-.091.567 0L216.648 117.436zM231.948 112.412c.157.091.158.238.002.329l-2.798 1.626c-.156.091-.41.091-.567 0l-2.183-1.261c-.157-.091-.158-.238-.002-.329l2.798-1.626c.156-.091.41-.091.567 0L231.948 112.412zM228.045 114.68c.157.091.158.238.002.329l-2.798 1.626c-.156.091-.41.091-.567 0l-2.183-1.26c-.157-.091-.158-.238-.002-.329l2.798-1.626c.156-.091.41-.091.567 0L228.045 114.68zM224.141 116.949c.157.091.158.238.002.329l-2.798 1.626c-.156.091-.41.091-.567 0l-2.183-1.261c-.157-.091-.158-.238-.002-.329l2.798-1.626c.156-.091.41-.091.567 0L224.141 116.949zM219.987 119.363c.157.091.158.238.002.329l-2.794 1.623c-.161.093-.415.093-.572.003l-2.183-1.261c-.157-.091-.158-.238.002-.331l2.794-1.623c.156-.091.41-.091.567 0L219.987 119.363z" class="colord0d5dd svgShape"/></g><polygon fill="#eaeffa" points="216.828 92.793 192.275 106.987 186.647 100.537 211.2 86.343" class="coloreaeffa svgShape"/><polygon fill="#a5acb7" points="189.813 99.785 209.293 88.54 213.666 93.543 194.187 104.788" class="colora5acb7 svgShape"/></g></g><g fill="#000000" class="color000 svgShape"><path fill="#3f528c" d="M174.02,123.144c0.327,0.59-0.038,1.233,0.3,1.43l-0.73-0.424        c-0.338-0.196-0.711-0.537-1.038-1.127c-0.154-0.275-0.407-0.538-0.763-0.744l1.01-0.095        C173.155,122.391,173.866,122.869,174.02,123.144z" class="color3f528c svgShape"/><path fill="#3f528c" d="M144.126,134.877c2.113-1.373,7.975-5.295,15.034-9.37c3.294-1.902,6.119-3.408,7.537-3.876        c4.636-1.531,6.905-1.165,8.008-0.524l0.73,0.424c-1.103-0.641-3.372-1.006-8.008,0.524c-1.418,0.468-4.243,1.974-7.537,3.876        c-7.059,4.076-12.921,7.997-15.034,9.37c-0.155,0.101-0.274,0.318-0.273,0.496l0.003,1.003c0,0.093,0.033,0.159,0.086,0.189        l-0.73-0.424c-0.053-0.031-0.086-0.096-0.086-0.19l-0.003-1.002C143.852,135.195,143.97,134.978,144.126,134.877z" class="color3f528c svgShape"/><path fill="#233163" d="M159.889,125.931c-7.059,4.076-12.921,7.997-15.034,9.37c-0.155,0.101-0.274,0.318-0.273,0.496        l0.003,1.002c0.001,0.188,0.134,0.262,0.295,0.169c1.342-0.915,3.542-2.234,5.988-3.646c4.196-2.422,5.766-3.148,8.194-4.469        c0.104-0.056,0.207-0.115,0.311-0.174c0.792-0.457,1.58-1.016,2.342-1.692c1.595-1.409,3.022-2.437,4.285-3.166        c4.253-2.456,6.642-1.524,7.283-0.375c0.486,0.876,1.072,1.203,1.496,1.323c0.126,0.037,0.274,0.003,0.421-0.082        c0.203-0.117,0.405-0.332,0.55-0.6l0.411-0.762c0.204-0.38,0.246-0.785,0.103-1.014c-0.522-0.847-2.393-2.383-8.838-0.256        C166.008,122.523,163.183,124.029,159.889,125.931z" class="color233163 svgShape"/><g fill="#000000" class="color000 svgShape"><path fill="#3f528c" d="M173.819 157.185l-.999.574c-1.006.617-2.749.121-5.831-1.658-1.474-.85-2.678-2.154-3.564-3.862-.815-1.573-1.389-3.528-1.736-6.001-.028-.191-.042-.376-.042-.546 0-.56.149-1.02.425-1.325.085-.099.177-.177.284-.241l.999-.581c-.106.064-.198.141-.283.241-.276.312-.425.765-.425 1.325 0 .177.014.361.043.546.347 2.473.921 4.428 1.736 6.001.886 1.708 2.09 3.011 3.564 3.862C171.07 157.298 172.813 157.794 173.819 157.185zM156.007 147.089l-.999.581c-.871.503-1.991.368-3.344-.411-3.075-1.778-4.818-3.295-5.817-5.073-.801-1.417-1.183-3.153-1.162-5.321.014-1.112.319-1.842.907-2.182l.999-.581c-.588.34-.893 1.077-.907 2.182-.021 2.168.361 3.904 1.162 5.321.999 1.778 2.742 3.294 5.817 5.073C154.016 147.457 155.136 147.592 156.007 147.089zM158.133 143.326l.921-.524c-.17.128-.312.376-.383.779-.135.723-.446 2.423-1.325 3.514-.248.298-.517.531-.808.708l-.999.574c.298-.17.567-.404.808-.708.878-1.084 1.19-2.785 1.325-3.507C157.757 143.695 157.927 143.447 158.133 143.326z" class="color3f528c svgShape"/><path fill="#8ca8f7" d="M169.476,146.405c-0.434-0.251-0.742-0.402-0.923-0.486l-0.082-0.036          c-1.448-0.815-3.113-1.594-4.357-2.058c-0.616-0.23-1.151-0.133-1.505,0.271c-0.273,0.311-0.424,0.766-0.425,1.327          c0,0.171,0.017,0.364,0.039,0.549c0.355,2.475,0.921,4.421,1.741,5.998c0.888,1.71,2.085,3.01,3.564,3.864          c3.076,1.776,4.824,2.275,5.831,1.659c0.799-0.497,1.192-1.785,1.189-3.947c-0.018-1.593-0.603-3.081-1.736-4.439          C171.99,148.122,170.833,147.189,169.476,146.405z" class="color8ca8f7 svgShape"/><path fill="#b7ceff" d="M150.314,135.342c-1.362-0.786-2.516-1.187-3.34-1.153c-1.138,0.046-1.729,0.855-1.756,2.412         c-0.015,2.162,0.365,3.897,1.163,5.316c1.005,1.778,2.741,3.29,5.822,5.069c1.479,0.854,2.68,0.938,3.574,0.257         c0.826-0.627,1.401-1.914,1.765-3.943c0.028-0.187,0.046-0.359,0.047-0.53c0.002-0.561-0.142-1.185-0.412-1.81         c-0.356-0.815-0.888-1.528-1.508-2.011c-1.239-0.97-2.907-2.116-4.35-2.97l-0.081-0.057         C151.056,135.796,150.744,135.59,150.314,135.342z" class="colorb7ceff svgShape"/><path fill="#8ca8f7" d="M150.314 135.342c.002.001.003.002.005.003l5.895 11.466c-.138.165-.281.314-.437.432-.047.035-.098.06-.146.091l-6.477-12.589C149.52 134.911 149.906 135.107 150.314 135.342zM145.217 136.601c.005-.311.04-.584.09-.835l5.245 10.201c-.486-.319-.938-.634-1.341-.946l-3.965-7.718C145.237 137.068 145.216 136.847 145.217 136.601zM146.973 134.189c.013 0 .027.001.04.001l6.921 13.459c-.527-.085-1.103-.3-1.733-.664-.16-.093-.302-.182-.455-.273l-6.09-11.844C145.95 134.443 146.388 134.213 146.973 134.189zM154.082 137.776l3.281 6.373c-.188.796-.419 1.45-.694 1.971l-5.156-10.023C152.347 136.599 153.242 137.185 154.082 137.776z" class="color8ca8f7 svgShape"/><g fill="#000000" class="color000 svgShape"><path fill="#b7ceff" d="M169.476 146.405c.812.469 1.54.996 2.18 1.551l2.887 5.799c-.013 1.111-.137 1.978-.373 2.614l-5.088-10.184C169.201 146.25 169.328 146.32 169.476 146.405zM167.983 145.62l5.759 11.525c-.116.138-.24.261-.382.348-.076.046-.164.074-.249.107l-6.285-12.578C167.217 145.215 167.601 145.414 167.983 145.62zM162.184 145.423c.001-.255.036-.485.096-.693l5.665 11.335c-.141-.079-.27-.147-.417-.231-.323-.187-.63-.398-.926-.627l-4.26-8.481c-.042-.247-.083-.496-.12-.755C162.201 145.787 162.183 145.595 162.184 145.423zM164.114 143.825c.096.036.208.085.309.124l6.803 13.613c-.606-.172-1.331-.48-2.168-.902l-6.327-12.665C163.082 143.689 163.562 143.618 164.114 143.825z" class="colorb7ceff svgShape"/></g><path fill="#3f528c" d="M175.683,153.607c0.014,2.331-0.446,3.734-1.403,4.287l-0.999,0.581      c0.957-0.553,1.417-1.956,1.41-4.287c-0.014-1.445-0.439-2.841-1.268-4.152c-1.304-2.076-3.351-3.472-4.542-4.166      c-0.553-0.319-0.928-0.482-0.964-0.503c-0.113-0.064-4.811-2.671-6.554-2.572c-0.106-0.149-0.659-0.829-1.97-1.587l-0.078-0.043      c-1.311-0.758-1.856-0.708-1.97-0.687c-1.736-2.104-6.434-4.924-6.547-4.995c-0.035-0.021-0.404-0.283-0.956-0.602      c-1.197-0.687-3.238-1.658-4.556-1.091c-0.071,0.028-0.135,0.064-0.199,0.099l0.999-0.581c0.064-0.035,0.128-0.071,0.198-0.099      c1.318-0.56,3.358,0.404,4.556,1.091c0.553,0.319,0.921,0.581,0.956,0.602c0.113,0.071,4.811,2.891,6.547,4.995      c0.113-0.021,0.659-0.071,1.969,0.687l0.078,0.043c1.311,0.758,1.856,1.438,1.97,1.587c1.743-0.092,6.44,2.515,6.554,2.572      c0.035,0.021,0.411,0.184,0.964,0.503c1.19,0.694,3.238,2.09,4.542,4.166C175.25,150.766,175.675,152.161,175.683,153.607z" class="color3f528c svgShape"/><g fill="#000000" class="color000 svgShape"><path fill="#233163" d="M174.687,154.185c0.012,2.334-0.45,3.739-1.408,4.29c-1.157,0.67-3.032,0.155-6.266-1.712        c-2.049-1.183-3.63-3.08-4.692-5.64c-0.873-2.103-1.171-4.154-1.3-5.025c-0.237-1.639-1.264-2.336-1.553-2.503        c-0.047-0.027-0.074-0.04-0.076-0.041c-0.088-0.051-0.115-0.069-0.162-0.096c-0.289-0.167-1.316-0.655-1.562,0.705        c-0.133,0.719-0.442,2.421-1.324,3.51c-1.073,1.327-2.659,1.396-4.713,0.21c-3.23-1.865-5.101-3.512-6.251-5.514        c-0.951-1.653-1.404-3.586-1.383-5.901c0.027-1.422,0.455-2.325,1.285-2.679c1.318-0.563,3.361,0.402,4.556,1.092        c0.553,0.32,0.925,0.58,0.958,0.602c0.118,0.073,4.813,2.888,6.551,4.996c0.109-0.026,0.657-0.074,1.969,0.684l0.077,0.044        c1.312,0.757,1.858,1.437,1.966,1.588c1.745-0.096,6.441,2.51,6.558,2.573c0.033,0.016,0.405,0.184,0.958,0.504        c1.195,0.69,3.237,2.084,4.547,4.164C174.251,151.346,174.673,152.74,174.687,154.185z M174.009,153.814        c-0.018-1.593-0.598-3.079-1.736-4.439c-0.822-0.985-1.975-1.921-3.332-2.705c-0.434-0.251-0.742-0.397-0.928-0.483        l-0.081-0.042c-1.443-0.807-3.108-1.591-4.353-2.05c-0.616-0.23-1.15-0.133-1.51,0.269c-0.273,0.311-0.419,0.768-0.421,1.329        c-0.001,0.172,0.013,0.356,0.039,0.544c0.351,2.473,0.921,4.426,1.737,6.001c0.888,1.71,2.089,3.013,3.564,3.864        c3.08,1.778,4.824,2.275,5.831,1.659C173.623,157.268,174.012,155.977,174.009,153.814 M157.001,143.563        c0.032-0.184,0.046-0.353,0.047-0.525c0.002-0.561-0.142-1.185-0.412-1.81c-0.356-0.815-0.888-1.528-1.503-2.008        c-1.243-0.978-2.907-2.116-4.35-2.975l-0.081-0.052c-0.186-0.128-0.493-0.337-0.927-0.587        c-1.357-0.784-2.511-1.179-3.341-1.148c-1.137,0.046-1.729,0.855-1.751,2.41c-0.015,2.167,0.365,3.902,1.163,5.321        c1.001,1.775,2.741,3.29,5.822,5.069c1.475,0.851,2.675,0.936,3.574,0.257C156.063,146.885,156.642,145.594,157.001,143.563" class="color233163 svgShape"/></g></g><g fill="#000000" class="color000 svgShape"><path fill="#3f528c" d="M204.691,141.244c0.327,0.59,0.164,1.354,0.502,1.551l-0.73-0.424        c-0.338-0.196-0.711-0.537-1.038-1.127c-0.153-0.275-0.407-0.538-0.763-0.744h1.265        C204.283,140.706,204.537,140.969,204.691,141.244z" class="color3f528c svgShape"/><path fill="#3f528c" d="M174.998,153.098c2.113-1.373,7.975-5.295,15.034-9.37c3.294-1.902,6.119-3.408,7.538-3.876        c4.636-1.53,6.905-1.165,8.008-0.524l0.729,0.424c-1.103-0.641-3.372-1.006-8.008,0.524c-1.418,0.468-4.243,1.974-7.537,3.876        c-7.059,4.076-12.921,7.997-15.034,9.37c-0.155,0.101-0.274,0.318-0.273,0.496l0.003,1.002c0,0.094,0.033,0.159,0.086,0.189        l-0.729-0.424c-0.053-0.031-0.086-0.096-0.086-0.19l-0.003-1.002C174.724,153.416,174.843,153.199,174.998,153.098z" class="color3f528c svgShape"/><g fill="#000000" class="color000 svgShape"><path fill="#233163" d="M190.762,144.152c-7.059,4.076-12.921,7.997-15.034,9.37c-0.155,0.101-0.274,0.318-0.273,0.496        l0.003,1.002c0.001,0.189,0.133,0.262,0.295,0.169c1.342-0.914,3.542-2.234,5.988-3.646c4.196-2.422,5.766-3.148,8.194-4.469        c0.104-0.056,0.207-0.115,0.311-0.174c0.791-0.457,1.58-1.016,2.342-1.692c1.595-1.41,3.022-2.437,4.285-3.166        c4.253-2.456,6.642-1.524,7.283-0.375c0.486,0.876,1.072,1.203,1.496,1.323c0.126,0.037,0.274,0.003,0.421-0.082        c0.203-0.117,0.405-0.332,0.55-0.6l0.412-0.763c0.204-0.38,0.246-0.785,0.103-1.014c-0.522-0.847-2.393-2.384-8.838-0.256        C196.881,140.744,194.056,142.25,190.762,144.152z" class="color233163 svgShape"/></g></g></g><g fill="#000000" class="color000 svgShape"><path fill="#f283b5" d="M209.93,74.065c-0.45,1.865,1.188,3.503,3.053,3.053c0.877-0.211,1.596-0.93,1.807-1.807    c0.45-1.865-1.188-3.503-3.053-3.053C210.86,72.469,210.141,73.188,209.93,74.065z" class="colorf283b5 svgShape"/><path fill="#8ca8f7" d="M225.145 88.408c-.337 1.052.619 2.008 1.672 1.672.378-.121.689-.433.81-.81.337-1.052-.619-2.008-1.672-1.672C225.578 87.718 225.266 88.03 225.145 88.408zM184.958 54.523c-.398 2.598 1.807 4.803 4.405 4.405 1.619-.248 2.942-1.571 3.19-3.19.398-2.598-1.807-4.803-4.405-4.405C186.528 51.581 185.206 52.904 184.958 54.523z" class="color8ca8f7 svgShape"/><path fill="#f283b5" d="M79.385,50.679c-0.398,2.598,1.807,4.803,4.405,4.405c1.619-0.248,2.942-1.571,3.19-3.19    c0.398-2.598-1.807-4.803-4.405-4.405C80.956,47.737,79.633,49.06,79.385,50.679z" class="colorf283b5 svgShape"/><path fill="#edc3d2" d="M51.229,56.692c-0.429,1.781,1.134,3.345,2.916,2.915c0.837-0.202,1.523-0.888,1.725-1.725    c0.429-1.781-1.135-3.345-2.915-2.915C52.117,55.168,51.431,55.855,51.229,56.692z" class="coloredc3d2 svgShape"/><path fill="#f283b5" d="M150.252,241.815c-0.398,2.598,1.807,4.803,4.405,4.405c1.619-0.248,2.942-1.571,3.19-3.19    c0.398-2.598-1.807-4.803-4.405-4.405C151.823,238.874,150.5,240.197,150.252,241.815z" class="colorf283b5 svgShape"/><path fill="#8ca8f7" d="M237.681,211.732c-0.404,1.675,1.067,3.145,2.742,2.742c0.787-0.19,1.433-0.835,1.622-1.622    c0.404-1.675-1.067-3.145-2.742-2.742C238.516,210.299,237.871,210.945,237.681,211.732z" class="color8ca8f7 svgShape"/></g></svg>