<svg xmlns="http://www.w3.org/2000/svg" xmlns:xlink="http://www.w3.org/1999/xlink" data-name="Ñëîé 1" viewBox="0 0 1171.96 1080"><defs><linearGradient id="d" x1="879.706" x2="607.069" y1="132.18" y2="1049.229" gradientTransform="scale(-1 1) rotate(13.391 -387.58 -4932.255)" gradientUnits="userSpaceOnUse"><stop offset=".006" stop-color="#fdf3ff" class="stopColorfdf3ff svgShape"/><stop offset=".449" stop-color="#d8e4ff" class="stopColord8e4ff svgShape"/><stop offset=".708" stop-color="#cedcff" class="stopColorcedcff svgShape"/><stop offset="1" stop-color="#c3d4ff" class="stopColorc3d4ff svgShape"/></linearGradient><linearGradient id="a" x1="634.175" x2="712.914" y1="691.052" y2="721.572" gradientTransform="scale(-1 1) rotate(-77.736 -288.393 1564.936)" gradientUnits="userSpaceOnUse"><stop offset="0" stop-color="#aec7f3" class="stopColoraec7f3 svgShape"/><stop offset=".806" stop-color="#81a4d7" class="stopColor81a4d7 svgShape"/></linearGradient><linearGradient id="b" x1="480.403" x2="537.97" y1="594.287" y2="665.895" gradientTransform="scale(-1 1) rotate(-64.87 -336.568 1553.582)" gradientUnits="userSpaceOnUse"><stop offset="0" stop-color="#d0fcff" class="stopColord0fcff svgShape"/><stop offset="1" stop-color="#8ccce5" class="stopColor8ccce5 svgShape"/></linearGradient><linearGradient id="c" x1="376.153" x2="783.702" y1="571.125" y2="571.125" gradientTransform="matrix(.2546 -.7936 -.7703 -.3067 1176.772 1026.801)" gradientUnits="userSpaceOnUse"><stop offset="0" stop-color="#c48dd4" class="stopColorc48dd4 svgShape"/><stop offset="1" stop-color="#a95cda" class="stopColora95cda svgShape"/></linearGradient><linearGradient id="e" x1="1023.765" x2="1104.071" y1="1061.128" y2="1092.255" gradientTransform="scale(-1 1) rotate(-46.738 -260.864 2417.64)" xlink:href="#a"/><linearGradient id="f" x1="941.767" x2="998.181" y1="868.962" y2="939.136" gradientTransform="scale(-1 1) rotate(-33.874 -202.015 2671.222)" xlink:href="#b"/><linearGradient id="g" x1="513.535" x2="925.96" y1="1194.665" y2="1194.665" gradientTransform="matrix(-.1905 -.8114 -.8182 .1338 1385.623 934.34)" xlink:href="#c"/><linearGradient id="h" x1="1063.328" x2="937.036" y1="758.96" y2="771.589" gradientTransform="matrix(-1 0 0 1 1232.92 0)" xlink:href="#d"/><linearGradient id="i" x1="947.377" x2="1056.612" y1="694.722" y2="694.722" gradientTransform="matrix(-1 0 0 1 1232.92 0)" gradientUnits="userSpaceOnUse"><stop offset="0" stop-color="#c3d4ff" class="stopColorc3d4ff svgShape"/><stop offset=".551" stop-color="#d8e4ff" class="stopColord8e4ff svgShape"/><stop offset=".994" stop-color="#fdf3ff" class="stopColorfdf3ff svgShape"/></linearGradient></defs><path fill="url(#d)" d="M273.09967,219.70366c-80.4143,32.7803-136.4492,108.2834-159.5948,190.4719-15.4208,54.7586-13.5375,115.6751,12.6771,166.1637,17.592,33.8821,46.8535,62.2057,81.8745,77.6415,17.5548,7.7376,34.7143,7.1623,52.3606,11.8509,16.2434,4.3157,29.023,15.3454,44.7882,21.9896,42.3682,17.8561,81.3999,31.9399,128.41749,28.7552,43.1217-2.8861,77.9621-37.6398,121.5317-47.2202,36.9-8.114,75.08912-7.0988,112.8246-8.9607s76.5113-7.0247,109.1996-25.9692c32.68839-18.9448,58.111-54.4749,55.33659-92.1543-2.5083-34.0677-27.0851-63.0868-55.85909-81.4972-28.7741-18.4106-61.9355-28.4602-93.5319-41.4434-39.937-16.4101-78.2732-38.0936-109.0616-68.3645-26.2723-25.831-33.5413-55.0734-51.67408-84.21264-15.56712-25.01656-55.80242-42.34676-82.378-51.54776C388.76077,197.46306,325.72017,198.25336,273.09967,219.70366Z"/><path fill="#fff4ff" d="M723.85946,126.20266a165.48217,165.48217,0,0,0-16.979-1.4663c-28.1175-.9761-79.5316-.542-93.3496,29.2483-6.2068,13.3813-7.9072,28.7983-16.01528,41.1208-7.03032,10.6845-18.10592,17.8751-27.79462,26.2245s-18.6772,19.284-18.8565,32.0734c-.3416,24.39654,31.1424,48.0186,46.9378,63.5169,33.9551,33.3164,68.2331,54.4193,110.8518,74.1974,25.5382,11.8516,49.574,26.5923,74.8629,38.9333,24.28529,11.8511,50.28839,21.5087,77.57,23.1586,27.2813,1.6497,56.132-5.5084,76.3768-23.6605,46.84513-42.003,11.1476-117.2496-13.6678-160.788-11.2238-19.69216-23.1641-41.00356-39.4802-57.18646-20.2229-20.0581-45.3941-36.7919-70.383-50.772C784.876,144.54666,756.55676,130.73006,723.85946,126.20266Z" class="colorfff4ff svgShape"/><g opacity=".67" fill="#000000" class="color000 svgShape"><path fill="url(#a)" d="M1044.32078,327.57656q.10425-.08055.2088-.1603c-.8706,10.1228,3.6423,17.7902-1.9081,28.4248-4.0338,7.7292-10.0556,14.36-14.2166,22.0266-7.2476,13.3537-1.0184,25.9593-7.3096,39.7922-9.0727,19.9496-24.2635,38.1991-45.1481,46.7249-16.33613,6.6691-35.81023,7.4065-49.22253,18.5401-8.7036,7.2249-13.46607,17.7872-20.471,26.5484-25.8888,32.3787-73.2853,25.5445-110.83649,24.6623-19.511-.4583-9.8851-6.6434-.2335-14.0988q40.19088-31.04625,80.37992-62.0944C931.81405,414.488,987.91868,370.84546,1044.32078,327.57656Z"/><path fill="#aec7f3" d="M1044.32138,327.57176c-8.6007-3.0488-15.6625.3949-24.0689-.1893-6.9844-.4855-13.9175-3.8381-21.0895-4.4881a79.82824,79.82824,0,0,0-45.38573,9.2414c-8.8841,4.9002-17.1281,11.6789-27.2853,13.1202-7.673,1.0886-15.4727-1.0512-23.2309-.8172-13.1389.3961-25.1802,7.6661-33.86347,17.0802-16.23463,17.601-24.06233,41.0665-39.78723,59.0239-8.0053,9.1422-18.5129,15.9515-27.1274,24.569-17.29819,17.3052-27.80637,59.976-18.09649,83.2278-.9745-2.3332,47.42869-36.6013,50.63579-39.0787q52.9524-40.9062,105.9046-81.8127C975.37918,380.83346,1009.79658,354.00916,1044.32138,327.57176Z" class="coloraec7f3 svgShape"/><path fill="#f5fafa" d="M783.10166,529.37a1.72143,1.72143,0,0,0,2.34992.248l259.9204-200.7915a1.55361,1.55361,0,0,0,.2438-2.2512,1.72091,1.72091,0,0,0-2.3494-.2482L783.346,527.11856A1.554,1.554,0,0,0,783.10166,529.37Z" class="colorf5fafa svgShape"/><path fill="#f5fafa" d="M850.03858 477.66086a1.77519 1.77519 0 00.31427.2886 1.71582 1.71582 0 002.3346-.3406c2.03013-2.6764 49.6699-65.98 40.3373-106.504a1.6844 1.6844 0 00-1.9928-1.2286 1.59354 1.59354 0 00-1.2687 1.9034c9.0126 39.1261-39.2931 103.287-39.7805 103.9293A1.55617 1.55617 0 00850.03858 477.66086zM928.00125 417.43326a1.72087 1.72087 0 001.8331.5185c.5265-.1689 53.05823-16.5094 73.20323 7.401a1.72125 1.72125 0 002.3496.2479 1.55412 1.55412 0 00.2438-2.2513c-21.607-25.646-74.62173-9.1541-76.86923-8.4376a1.568 1.568 0 00-.7605 2.5215z" class="colorf5fafa svgShape"/></g><path fill="#d0fcff" d="M808.86685,253.96276c-21.62927,9.0791-26.68069,32.1024-46.17319,45.3417-7.9626,5.408-17.0893,9.6044-23.0272,17.1666-9.1637,11.6704-8.4133,28.5178-3.9571,42.8722,3.123,10.0601,7.8921,20.4605,5.4698,30.6135-2.1882,9.1718-9.7741,15.8807-14.2719,24.1359-12.5833,23.0971-.1361,51.5258,9.2011,73.695,4.51822,10.7276,9.8833,21.3794,18.4833,29.5367.5135.4872,9.2537,6.9484,9.2534,6.95q7.6116-45.7032,15.2229-91.4059c9.9287-59.6168,19.0445-119.4865,29.83529-178.9209Z" class="colord0fcff svgShape"/><path fill="url(#b)" d="M808.86445,253.95626c-.1744,1.0462,10.077,12.09621,11.4489,14.793a37.9153,37.9153,0,0,1,3.9938,23.438c-1.2053,8.817-3.0934,18.6234,1.9976,26.0466,4.2907,6.2556,12.3141,8.7988,17.6517,14.1999,7.4976,7.5867,8.429,19.3525,7.4727,29.8516-1.7915,19.6669-8.8144,37.788-19.3661,54.2237-9.832,15.3148-8.21347,27.3146-8.7571,45.2902-.6432,21.2724-14.4378,31.3321-28.59259,44.2008-6.4609,5.8739-11.7486,11.5625-20.1472,15.124-.6224.2638-10.7203,3.1462-10.7211,3.1512C764.01826,523.23656,808.86185,253.97176,808.86445,253.95626Z"/><path fill="#f5fafa" d="M763.61966,525.62706a1.39882,1.39882,0,0,1-1.1314-1.5964l45.02-270.3217a1.3458,1.3458,0,0,1,1.5805-1.1002,1.39846,1.39846,0,0,1,1.1314,1.5963l-45.01979,270.3215A1.34612,1.34612,0,0,1,763.61966,525.62706Z" class="colorf5fafa svgShape"/><path fill="#f5fafa" d="M775.21358 456.01246a1.50669 1.50669 0 01-.34212-.1091 1.3905 1.3905 0 01-.6861-1.8271c1.1777-2.5668 29.19029-62.9932 63.16589-72.8845a1.40128 1.40128 0 011.71933.9361 1.34777 1.34777 0 01-.908 1.6986c-32.80543 9.549-61.18852 70.8085-61.47142 71.4244A1.35494 1.35494 0 01775.21358 456.01246zM788.71746 374.92946a1.40381 1.40381 0 01-1.12488-1.1123c-.08622-.4501-9.06282-45.1315-35.00632-49.8768a1.3984 1.3984 0 01-1.1314-1.5964 1.34588 1.34588 0 011.5804-1.1006c27.8266 5.0897 36.885 50.1822 37.2558 52.1013a1.351 1.351 0 01-1.5736 1.5848z" class="colorf5fafa svgShape"/><path fill="url(#c)" d="M956.88385,237.86056c8.2975,19.2793,18.45563,47.5336,10.654,66.932-3.7308,9.2762-9.5966,18.3418-11.00627,28.6289-1.62513,11.8591,4.70867,21.1621,4.81667,32.5973.4391,46.3905-57.4383,41.6356-63.9579,78.9067-1.5965,9.1276.4347,18.8618-1.0147,28.0268-1.8586,11.753-9.3505,21.4469-18.3919,28.0224-16.5339,12.0237-37.557,18.9552-57.4114,22.4643-13.45,2.3776-24.74959,8.545-39.11749,7.0572-.72228-.0747-12.01228-2.5646-12.0341-2.5308C769.63466,527.63416,956.88385,237.86056,956.88385,237.86056Z"/><path fill="#dab8f4" d="M956.88065,237.866c-3.7,5.5716-25.3459,2.5114-31.262,3.1457-14.2663,1.5293-29.4165,5.8761-41.4857,13.8541-8.0719,5.3362-14.781,13.72864-16.1352,23.97847-.5059,3.828-.29517,7.94383-1.9524,11.30753-2.4507,4.9743-8.2869,6.7992-13.6673,6.7652-19.61-.1236-35.80947,1.1059-44.2752,22.8619-6.3726,16.3769-11.27219,41.9922-11.39089,59.7218-.0419,6.3083.4662,12.997-2.208,18.447-2.424,4.9394-7.055,8.007-11.0539,11.5412-23.3048,20.5959-35.3862,65.6365-23.4836,96.9672.4074,1.0725,9.2483,21.8279,9.4587,21.5025C770.50786,526.28306,956.88365,237.86086,956.88065,237.866Z" class="colordab8f4 svgShape"/><path fill="#f5fafa" d="M768.48476,529.41346a1.58048,1.58048,0,0,0,2.34482-.3545l187.46277-290.1042a1.94354,1.94354,0,0,0-.4745-2.5402,1.58094,1.58094,0,0,0-2.3449.3545L768.01046,526.87346A1.94411,1.94411,0,0,0,768.48476,529.41346Z" class="colorf5fafa svgShape"/><path fill="#f5fafa" d="M816.76165 454.70446a1.92988 1.92988 0 00.3945.2333 1.57181 1.57181 0 002.14443-.9976c1.11517-3.4841 27.12087-85.7911 5.344-127.8499a1.70861 1.70861 0 00-2.30973-.8191 1.80991 1.80991 0 00-.62427 2.4307c21.02787 40.6085-5.35013 124.0351-5.618 124.8711A1.98293 1.98293 0 00816.76165 454.70446zM872.991 367.68756a1.60342 1.60342 0 001.9319.0799c.4545-.3261 45.9833-32.3087 72.9546-11.3985a1.58055 1.58055 0 002.3446-.3547 1.94415 1.94415 0 00-.4746-2.5402c-28.9284-22.427-74.8755 9.8506-76.8176 11.2381a1.85177 1.85177 0 00-.3707 2.5048A1.9094 1.9094 0 00872.991 367.68756zM798.34395 488.679a1.60312 1.60312 0 001.9317.0802c.4544-.3261 45.983-32.3089 72.9547-11.3988a1.58048 1.58048 0 002.3445-.3544 1.94505 1.94505 0 00-.4744-2.5405c-28.92887-22.4269-74.8758 9.8509-76.8181 11.2382a1.85215 1.85215 0 00-.37049 2.5049A1.89608 1.89608 0 00798.34395 488.679z" class="colorf5fafa svgShape"/><g opacity=".67" fill="#000000" class="color000 svgShape"><path fill="url(#e)" d="M374.30587,371.38716q.0474-.12405.0954-.2478c4.4161,9.2338,12.1442,13.5324,12.8552,25.6488.5169,8.806-1.2102,17.6954-.83289,26.5134.65709,15.3592,12.35379,23.0466,14.06539,38.3232,2.46869,22.0312-1.1129,45.7763-14.4702,64.0544-10.448,14.2975-26.5755,25.0853-32.2728,41.7315-3.6972,10.8021-2.3553,22.4452-3.8308,33.6946-5.4535,41.5749-49.098,60.3462-81.369,79.1495-16.7674,9.7699-11.7593-.6109-7.3761-12.107q18.25185-47.8722,36.5012-95.7451C323.215,505.39926,348.53927,438.30876,374.30587,371.38716Z"/><path fill="#aec7f3" d="M374.30407,371.38276c-8.8408,1.8375-13.0719,8.5045-20.4931,12.3785-6.1659,3.2185-13.7481,3.9235-20.1567,7.0972a79.63993,79.63993,0,0,0-33.7559,31.6667c-5.0337,8.8799-8.5686,19.0555-16.4422,25.5987-5.948,4.9427-13.6471,7.1512-20.1025,11.3972-10.9324,7.1904-17.4352,19.7709-20.0005,32.4613-4.7962,23.7264.5175,48.1585-3.6653,71.9285-2.1292,12.1012-7.5667,23.4829-10.47929,35.4465-5.84831,24.0242,6.97219,66.5109,27.039,81.6185-2.01371-1.5158,21.557-56.4621,23.01349-60.2821q24.0462-63.0747,48.0921-126.1492C342.99827,453.50636,358.50717,412.30466,374.30407,371.38276Z" class="coloraec7f3 svgShape"/><path fill="#f5fafa" d="M255.68337,682.53906a1.69068,1.69068,0,0,0,2.1176-1.0094l118.0321-309.6061a1.58221,1.58221,0,0,0-.9396-2.0797,1.69034,1.69034,0,0,0-2.1173,1.0091l-118.0321,309.6061A1.5825,1.5825,0,0,0,255.68337,682.53906Z" class="colorf5fafa svgShape"/><path fill="#f5fafa" d="M286.08017 602.80706a1.67831 1.67831 0 002.2183-1.4255c.3577-3.3793 8.4985-83.1119-20.0425-113.3973a1.66523 1.66523 0 00-2.4203 2.285c27.5581 29.2396 19.2894 110.0628 19.2035 110.8739A1.57641 1.57641 0 00286.08017 602.80706zM321.48347 509.94076a1.67573 1.67573 0 001.8174-.5055c.3602-.4209 36.5573-41.9689 65.8023-31.7279a1.6906 1.6906 0 002.1173-1.0094 1.58252 1.58252 0 00-.9396-2.0797c-31.3677-10.9846-67.8969 30.9465-69.4367 32.7392a1.62426 1.62426 0 00.1449 2.3007A1.54206 1.54206 0 00321.48347 509.94076z" class="colorf5fafa svgShape"/></g><path fill="#d0fcff" d="M137.297,430.23616c-13.7067,19.1462-6.2653,41.7479-16.0431,63.389-3.99429,8.8401-9.5919,17.2359-10.7736,26.8893-1.82369,14.8977,7.3899,29.1194,18.4745,39.2477,7.7685,7.0982,17.1053,13.6338,20.22181,23.7024,2.81539,9.0955-.19731,18.8676.19419,28.3717,1.0962,26.5907,26.1184,44.7622,45.3182,59.125,9.29061,6.9501,19.2604,13.3932,30.7015,15.9869.6832.1551,11.3795,1.2046,11.38011,1.2061q-16.81921-43.60755-33.63811-87.2144c-21.9394-56.883-44.6965-113.5618-65.8124-170.7359Z" class="colord0fcff svgShape"/><path fill="url(#f)" d="M137.29167,430.23176c.3848.9984,14.6981,5.2405,17.2337,6.8646a38.1298,38.1298,0,0,1,15.3176,18.2479c3.4677,8.2756,6.8605,17.7651,14.9542,21.5507,6.821,3.1898,14.915,1.2146,22.1882,3.1178,10.2163,2.6733,16.996,12.393,21.5311,21.9978,8.495,17.9918,11.7697,37.3691,11.19611,57.1233-.53461,18.407,6.94659,27.9717,15.638,43.8462,10.28549,18.7859,3.71739,34.6999-1.72571,53.2379-2.4845,8.4616-4.0692,16.1511-9.3731,23.6169-.3931.5531-7.4828,8.3153-7.4809,8.3201C236.38887,687.16386,137.29727,430.24666,137.29167,430.23176Z"/><path fill="#f5fafa" d="M237.26817,689.445a1.37284,1.37284,0,0,1-1.77159-.795l-99.48021-257.9259a1.36686,1.36686,0,1,1,2.5508-.9829l99.4802,257.9256A1.37175,1.37175,0,0,1,237.26817,689.445Z" class="colorf5fafa svgShape"/><path fill="#f5fafa" d="M211.64958 623.02256a1.4676 1.4676 0 01-.34541.0837 1.3825 1.3825 0 01-1.5117-1.2273c-.3088-2.84-7.3356-69.849 16.42011-96.1335a1.36271 1.36271 0 011.93359-.0839 1.386 1.386 0 01.0953 1.9464c-22.9383 25.3777-15.8013 93.3024-15.7274 93.984A1.37353 1.37353 0 01211.64958 623.02256zM181.81067 545.65756a1.36622 1.36622 0 01-1.5196-.3785c-.3021-.3454-30.6582-34.4224-55.0593-25.0187a1.37908 1.37908 0 01-.9927-2.5732c26.1724-10.0863 56.8069 24.3045 58.0982 25.7758a1.38373 1.38373 0 01-.1146 1.9433A1.32422 1.32422 0 01181.81067 545.65756z" class="colorf5fafa svgShape"/><path fill="url(#g)" d="M254.53187,339.13606c16.8473,12.3981,39.8409,31.6111,43.1062,52.502,1.5613,9.9899,1.2061,20.9097,5.249,30.567,4.6608,11.1329,14.7648,15.9013,20.6784,25.7634,23.9912,40.0083-27.4764,66.0449-14.025,101.7696,3.2943,8.7489,9.9716,16.1334,13.4096,24.8381,4.4088,11.1626,2.9956,23.4748-1.31849,33.8897-7.88951,19.0448-22.17581,36.0124-37.21441,49.4024-10.1872,9.0712-16.6227,20.309-29.556,26.5058-.65.3116-11.4852,4.0353-11.4865,4.0761C243.38727,688.05136,254.53187,339.13606,254.53187,339.13606Z"/><path fill="#dab8f4" d="M254.53187,339.14236c-.2986,6.7607-20.2,15.3865-24.8905,19.0195-11.3109,8.7609-21.9365,20.4261-28.1024,33.6353-4.12339,8.8347-5.536,19.6102-1.4649,29.2062,1.5202,3.5838,3.7944,7.0439,4.10251,10.8251.45589,5.5915-3.56081,10.2157-8.13761,12.99-16.6809,10.1119-29.7827,19.62-25.88,42.9019,2.9379,17.5255,11.82761,42.2963,20.7539,57.7361,3.1762,5.4934,7.0123,11.03,7.5209,17.1507.4607,5.5474-1.9019,10.6215-3.4913,15.7707-9.2628,30.0084,3.431,75.3705,29.4692,96.3428.8913.718,18.9507,14.1131,18.9633,13.7213C243.43937,686.42436,254.53187,339.13636,254.53187,339.14236Z" class="colordab8f4 svgShape"/><path fill="#f5fafa" d="M243.31877,690.19386a1.57344,1.57344,0,0,0,1.8066-1.5294l11.15721-349.3134a1.95144,1.95144,0,0,0-1.69541-1.9559,1.57377,1.57377,0,0,0-1.80659,1.5294L241.62367,688.238A1.95181,1.95181,0,0,0,243.31877,690.19386Z" class="colorf5fafa svgShape"/><path fill="#f5fafa" d="M246.19258 600.23666a1.86322 1.86322 0 00.45309-.0031 1.58823 1.58823 0 001.3093-1.9828c-.8288-3.6031-20.6967-88.5446-60.5647-113.6763a1.66616 1.66616 0 00-2.3743.4931 1.85451 1.85451 0 00.7085 2.4337c38.4949 24.2641 58.6173 110.3706 58.8159 111.2354A1.97628 1.97628 0 00246.19258 600.23666zM249.539 495.46016a1.5782 1.5782 0 001.6778-.9374c.2191-.5197 22.51781-51.9857 56.0201-47.9043a1.57345 1.57345 0 001.8063-1.5294 1.95216 1.95216 0 00-1.6955-1.956c-35.93309-4.3772-58.43609 47.5627-59.3753 49.7782a1.89065 1.89065 0 00.961 2.3658A1.8564 1.8564 0 00249.539 495.46016zM247.88267 639.30246a1.57757 1.57757 0 001.6778-.9371c.21911-.5196 22.5174-51.9857 56.02011-47.9046a1.57336 1.57336 0 001.80629-1.529 1.95293 1.95293 0 00-1.6955-1.9563c-35.9335-4.377-58.4361 47.563-59.3757 49.7785a1.89094 1.89094 0 00.9614 2.3657A1.84181 1.84181 0 00247.88267 639.30246z" class="colorf5fafa svgShape"/><path fill="#9eb8f2" d="M201.90777,824.11066h81.5566s25.6574-35.9884,21.1583-118.5414H180.75017l.02841.1146C176.27907,788.15076,201.90777,824.11066,201.90777,824.11066Z" class="color9eb8f2 svgShape"/><path fill="url(#h)" d="M201.90777,824.11066h31.8084s25.65741-35.9884,21.158-118.5414h-74.124l.02841.1146C176.27907,788.15076,201.90777,824.11066,201.90777,824.11066Z"/><path fill="#9eb8f2" d="M176.30758,688.79016v11.8629a4.90685,4.90685,0,0,0,4.89779,4.9162h122.9617a4.90674,4.90674,0,0,0,4.8979-4.9162v-11.8629a4.90693,4.90693,0,0,0-4.8979-4.9162H181.20537A4.907,4.907,0,0,0,176.30758,688.79016Z" class="color9eb8f2 svgShape"/><path fill="url(#i)" d="M176.30758,688.79016v11.8629a4.90685,4.90685,0,0,0,4.89779,4.9162h99.44021a4.90674,4.90674,0,0,0,4.89789-4.9162v-11.8629a4.90693,4.90693,0,0,0-4.89789-4.9162H181.20537A4.907,4.907,0,0,0,176.30758,688.79016Z"/><rect width="124.91" height="6.663" x="180.241" y="705.471" fill="#9eb8f2" transform="rotate(180 242.696 708.802)" class="color9eb8f2 svgShape"/><path fill="#fff4ff" d="M558.733,139.64816c-35.415-7.9009-69.1047,7.4469-100.851,21.0609-18.2657,7.8331-10.2883,24.5253.5537,35.97,14.0616,14.8434,39.5688,21.5479,59.0342,25.2223,22.8054,4.3037,40.6175-11.5789,50.3848-30.6528C578.44976,170.558,586.29258,145.79656,558.733,139.64816Z" class="colorfff4ff svgShape"/><polygon fill="#616d7d" points="541.387 621.908 501.246 621.908 481.175 576.404 521.316 576.404 541.387 621.908" class="color616d7d svgShape"/><polygon fill="#7590a2" points="536.875 621.908 496.734 621.908 476.663 576.404 516.804 576.404 536.875 621.908" class="color7590a2 svgShape"/><path fill="#758798" d="M544.62576,615.97126h-77.0496a2.96819,2.96819,0,0,0-2.9681,2.9683h0a2.96808,2.96808,0,0,0,2.9681,2.9681h77.0496a2.96808,2.96808,0,0,0,2.9681-2.9681h0A2.96819,2.96819,0,0,0,544.62576,615.97126Z" class="color758798 svgShape"/><path fill="#616d7d" d="M426.32916,591.85336c-7.4171,0-12.59858-6.0347-11.55-13.4515l17.427-123.2668a16.04171,16.04171,0,0,1,15.3549-13.4531h158.5096c7.4168,0,12.5983,6.0348,11.5497,13.4523l-17.427,123.2676a16.041,16.041,0,0,1-15.3534,13.4515Z" class="color616d7d svgShape"/><path fill="#758798" d="M418.99466,591.85336c-7.417,0-12.5985-6.0347-11.5499-13.4515l17.427-123.2668a16.04161,16.04161,0,0,1,15.35482-13.4531H598.73616c7.4168,0,12.5983,6.0348,11.5497,13.4523l-17.427,123.2676a16.041,16.041,0,0,1-15.3534,13.4515Z" class="color758798 svgShape"/><path fill="#f7f6f0" d="M420.39566,581.94576a6.60732,6.60732,0,0,1-6.68908-7.7905l16.22648-114.7744a9.27887,9.27887,0,0,1,8.8926-7.7912H597.335a6.60711,6.60711,0,0,1,6.6891,7.7904l-16.2263,114.7752a9.27854,9.27854,0,0,1-8.892,7.7905Z" class="colorf7f6f0 svgShape"/><path fill="#bccace" d="M435.01 478.88516h158.9571a3.46969 3.46969 0 003.3152-2.8853l1.0908-7.3222a2.42639 2.42639 0 00-2.4554-2.8853h-158.957a3.46979 3.46979 0 00-3.3153 2.8853l-1.09078 7.3222A2.42648 2.42648 0 00435.01 478.88516zM561.23946 556.28856h21.0102a3.69281 3.69281 0 003.5283-3.071l9.8041-65.8055a2.58265 2.58265 0 00-2.61348-3.071H571.95866a3.69289 3.69289 0 00-3.5285 3.071l-9.8041 65.8055A2.58269 2.58269 0 00561.23946 556.28856zM427.21846 535.37616h55.8598a3.69254 3.69254 0 003.5282-3.0709l6.6885-44.8932a2.58268 2.58268 0 00-2.6135-3.071h-55.8596a3.69277 3.69277 0 00-3.5284 3.071l-6.6884 44.8932A2.58246 2.58246 0 00427.21846 535.37616zM423.00446 543.04856a3.73234 3.73234 0 013.35312-3.2948h56.277c1.58088 0 2.64238 1.4752 2.37128 3.2948l-3.6789 24.6946h-62.0017zM495.70858 519.98716a3.73212 3.73212 0 013.35308-3.2948H520.489c1.5808 0 2.6425 1.4752 2.3714 3.2948l-7.11478 47.756H488.59376zM556.99436 564.16976a3.73232 3.73232 0 013.3531-3.2948h21.4276c1.5807 0 2.64252 1.4752 2.3712 3.2948l-.5324 3.5734H556.462zM531.52858 531.19376h21.01a3.69257 3.69257 0 003.52838-3.071l6.0654-40.7107a2.58268 2.58268 0 00-2.6134-3.071h-21.0102a3.69266 3.69266 0 00-3.5283 3.071l-6.0653 40.7107A2.58251 2.58251 0 00531.52858 531.19376zM528.17106 484.34106l-3.7057 24.8741a3.732 3.732 0 01-3.3531 3.2948h-21.4276c-1.5807 0-2.6425-1.4749-2.3712-3.2948l3.7057-24.8741zM526.37466 538.671a3.73232 3.73232 0 013.3531-3.2948h21.4274c1.5809 0 2.64242 1.4752 2.3713 3.2948l-4.3312 29.0722h-27.1519z" class="colorbccace svgShape"/><polygon fill="#979dfe" points="577.021 503.029 589.622 503.029 591.783 488.524 579.182 488.524 577.021 503.029" class="color979dfe svgShape"/><path fill="#f7f6f0" d="M568.64186,507.24426l-.371,2.4907H588.623l.371-2.4907Zm19.6561,4.6723h-20.3521l-.3712,2.4908h20.3521Zm-.6962,4.6724h-20.3521l-.371,2.4909h20.3521Zm-.69618,4.6725H566.55346l-.371,2.4908h20.35212Zm-.696,4.6722h-9.94272l-.371,2.4907h9.9425Z" class="colorf7f6f0 svgShape"/><polygon fill="#fdd247" fill-rule="evenodd" points="543.571 503.029 556.172 503.029 558.333 488.524 545.732 488.524 543.571 503.029" class="colorfdd247 svgShape"/><path fill="#f7f6f0" d="M535.19226,507.24426l-.3712,2.4907h20.352l.3712-2.4907Zm19.6558,4.6723h-20.352l-.371,2.4908h20.352Zm-.696,4.6724h-20.352l-.3712,2.4909h20.352Zm-.6962,4.6725h-20.352l-.371,2.4908h20.352Zm-.696,4.6722h-9.9427l-.3709,2.4907h9.9424Z" class="colorf7f6f0 svgShape"/><polygon fill="#70a0fe" points="504.332 535.381 516.934 535.381 519.095 520.875 506.493 520.875 504.332 535.381" class="color70a0fe svgShape"/><path fill="#f7f6f0" d="M495.95366 539.59556l-.3712 2.4908h20.35212l.37118-2.4908zm19.65592 4.6724H495.25746l-.371 2.4907h20.35212zm-.696 4.6723H494.56146l-.3712 2.4908h20.3521zm-.69622 4.6724h-20.3521l-.371 2.4907h20.3521zm-.696 4.6723h-9.9427l-.371 2.4908h9.9425zM503.84806 486.60666l-.371 2.4908h20.3521l.371-2.4908zm19.6561 4.6724h-20.3521l-.3712 2.4909H523.133zm-.6962 4.6723h-9.4519l-.371 2.491h9.4519z" class="colorf7f6f0 svgShape"/><polygon fill="#70a0fe" points="433.585 503.029 487.171 503.029 489.332 488.524 435.746 488.524 433.585 503.029" class="color70a0fe svgShape"/><path fill="#f7f6f0" d="M432.95736,507.24426l-.3712,2.4907h53.58542l.371-2.4907Zm52.88922,4.6723H454.06136l-.3709,2.4908h31.7849Z" class="colorf7f6f0 svgShape"/><polygon fill="#818bea" fill-rule="evenodd" points="535.938 554.259 548.54 554.259 550.701 539.754 538.099 539.754 535.938 554.259" class="color818bea svgShape"/><path fill="#f7f6f0" d="M527.55966,558.47456l-.3712,2.4907h20.35212l.37118-2.4907Zm19.65592,4.6723H534.13026l-.371,2.4908h13.08532Z" class="colorf7f6f0 svgShape"/><polygon fill="#66bcd5" fill-rule="evenodd" points="570.418 547.344 583.02 547.344 585.181 532.839 572.579 532.839 570.418 547.344" class="color66bcd5 svgShape"/><path fill="#f7f6f0" d="M562.03958,551.55936l-.371,2.4907h20.35208l.37092-2.4907Z" class="colorf7f6f0 svgShape"/><path fill="#f4a086" d="M433.42606,525.345a230.76974,230.76974,0,0,0,17.6727,49.5323c2.0989,4.2597,5.111,8.9922,9.7504,9.2634,5.3605.3134,9.8149-5.2794,10.7149-10.718,2.46552-14.8958-1.1662-38.784-5.1342-59.0165Z" class="colorf4a086 svgShape"/><path fill="#9e7176" fill-rule="evenodd" d="M468.05636,506.91926c-2.5506-12.4263-6.523-44.2264-22.7746-45.6359-19.0161-1.6492-19.3756,26.9956-17.9501,39.4394a231.37081,231.37081,0,0,0,4.5556,26.2033l37.6819-12.4892Q468.82861,510.65941,468.05636,506.91926Z" class="color9e7176 svgShape"/><path fill="#f7b690" d="M516.42686,507.98726c2.8931-1.7836,6.5052-3.5983,9.4551-1.9156,4.351,2.4819,2.6031,9.268.1264,13.7028a189.9935,189.9935,0,0,1-51.9861,59.4086c-11.6968,8.7343-17.2118,6.9049-23.3836-6.479C443.839,557.95846,498.39286,519.10576,516.42686,507.98726Z" class="colorf7b690 svgShape"/><path fill="#f7b690" d="M522.59286,495.79356c7.4641-6.0954,17.8852-6.0592,27.4146-5.7369.5213,1.2344-.507,2.6333-1.6976,3.1942s-2.5556.63-3.75028,1.1816c-3.13972,1.4497-4.04632,5.5833-4.00722,9.1198.0388,3.5364.5609,7.3319-1.1589,10.3954-1.7535,3.123-5.4376,4.5966-8.9378,4.8537-4.2536.3127-14.8613-1.8091-15.987-7.2375C513.43266,506.56806,519.10646,498.64066,522.59286,495.79356Z" class="colorf7b690 svgShape"/><path fill="#f4a086" d="M526.81876,515.39066a16.81846,16.81846,0,0,1-8.7139-2.4038,1.00433,1.00433,0,0,1-.3381-1.3538.947.947,0,0,1,1.3185-.3465,15.00949,15.00949,0,0,0,13.5548.9427c.7213-.3126,1.4634-.8636,1.3901-1.3346-.0941-.6079-1.4804-.8559-2.2261-.9891a13.69344,13.69344,0,0,1-10.2298-8.7332.9955.9955,0,0,1,.5654-1.271.95269.95269,0,0,1,1.23792.5801,11.71769,11.71769,0,0,0,8.75718,7.4768c1.2191.218,3.4863.6233,3.7964,2.6267.2141,1.3866-.7365,2.6827-2.5435,3.4653A16.53776,16.53776,0,0,1,526.81876,515.39066Z" class="colorf4a086 svgShape"/><path fill="#a0b5bf" d="M409.31936,564.46536c-4.1605-10.3692-48.06629,2.1334-55.48889,19.4656a31.076,31.076,0,0,0-10.8232,14.3991c-3.2138,9.1468-2.0783,18.2472-.7953,26.8774q6.8931,46.3659,17.76961,91.1938c.53339,2.1979,1.10889,4.461,2.56849,6.0355,3.7264,4.0201,9.9041,2.335,15.282-1.3747a7.8661,7.8661,0,0,0,1.1376.4792c3.4788,1.1175,14.7678-5.9645,17.2393-8.8075C398.68067,709.89106,412.66786,572.81076,409.31936,564.46536Z" class="colora0b5bf svgShape"/><path fill="#f4a086" d="M358.73458,834.92886a36.09792,36.09792,0,0,0,16.14969-1.3181q1.07085-9.65055,2.1415-19.3009a4.64362,4.64362,0,0,0-.1333-2.3529,3.45742,3.45742,0,0,0-2.7343-1.6089c-4.2107-.7864-10.772-1.032-11.8474,4.5505C361.02587,821.57006,359.93117,828.255,358.73458,834.92886Z" class="colorf4a086 svgShape"/><path fill="#a0b5bf" d="M398.61587 691.89646c-3.6164-11.3906-18.0547-19.1977-30.831.5612-19.48529 30.1347-1.9295 86.5018-7.472 122.8925h18.189C380.03277 811.82776 400.62207 698.21556 398.61587 691.89646zM315.15307 597.84266c4.42851 3.5843 10.2836 4.1325 15.7758 4.1325 45.2121 0 71.37419-15.1074 65.1213-36.4458-6.4232-21.919-46.8842-18.3806-68.0181-11.3174-4.5554 1.5226-11.1938 2.9967-14.306 7.3674C309.21487 567.91446 304.39417 589.13506 315.15307 597.84266z" class="colora0b5bf svgShape"/><path fill="#a0b5bf" d="M306.57487 582.37046c6.4131-30.9763 60.4996-23.3137 66.7526 7.4324 3.2207 15.8366-.8606 32.2449-6.04889 47.5201a322.52123 322.52123 0 01-15.03211 36.6765c-5.165 10.68-11.1981 24.6688-17.4958 34.6866-.6986 1.1115-27.4972-.3753-28.4778-6.2588a357.76276 357.76276 0 01-4.551-44.323C300.71737 633.26916 301.51507 606.81006 306.57487 582.37046zM410.603 844.38116c.2331-2.6737-2.2365-4.8892-4.778-5.5118-2.5415-.6223-5.19959-.1484-7.81229-.1798a21.03966 21.03966 0 01-18.1086-11.4846 5.47068 5.47068 0 00-1.81849-2.4837 3.43588 3.43588 0 00-3.78581.7141c-1.0547.8895-1.7994 2.1034-2.7627 3.0959a9.14987 9.14987 0 01-6.6301 2.7269c-2.0443-.031-4.3331-1.6352-6.297-.5749-1.7335.936-2.2003 3.4027-2.6396 5.1608-.7569 3.0295-1.4432 6.0796-2.1645 9.1182a13.03017 13.03017 0 00-.3647 2.0692h14.19941c.66019-.956 1.19879-3.7379 1.48149-4.8859.0469 1.1801.5013 3.9774 1.2303 4.8859h39.02569A4.56763 4.56763 0 00410.603 844.38116z" class="colora0b5bf svgShape"/><path fill="#f4a086" d="M252.55527,827.09086a34.93087,34.93087,0,0,0,15.231,4.9725q3.0555-9.1422,6.1108-18.2846a4.97788,4.97788,0,0,0,.3801-2.3822,4.3483,4.3483,0,0,0-2.1868-2.6566c-3.7297-2.4157-9.7507-5.2096-11.9402-.0982C257.53367,814.75016,255.09047,820.946,252.55527,827.09086Z" class="colorf4a086 svgShape"/><path fill="#a0b5bf" d="M335.10307 707.23866c.2112-12.193-12.2052-27.1138-28.7146-11.4524-26.5824 25.2167-36.46089 75.4367-48.1643 112.5345l16.8372 7.0709C277.57907 812.64356 334.98567 714.01586 335.10307 707.23866zM270.37858 844.78756c1.07949-2.4353.89039-4.9081.08559-5.9185-.805-1.0103-.76859-5.8373-.4941-12.8088.1254-3.189-5.0227-6.2569-9.65-2.6196-1.50149 1.1802-2.7229 1.8421-3.7018 1.3913-.8202-.3779-1.1608-2.2542-2.3503-1.6081-1.0499.5703-2.1482 2.7737-2.9743 4.3259-1.4236 2.675-2.8259 5.3812-4.2385 8.0706-.3125.5954-.6353 1.2202-.9102 1.8532l22.7595 9.5579A7.90048 7.90048 0 00270.37858 844.78756z" class="colora0b5bf svgShape"/><path fill="#b17f83" fill-rule="evenodd" d="M410.61816,589.522c-.784-39.3826,15.0146-66.6316,34.285-86.5796,7.5273-7.7919,16.6551-16.9134,14.6873-27.7042-1.6711-9.1661-10.7066-14.6331-18.9875-18.4509a287.58777,287.58777,0,0,0-44.29049-15.8798c-9.0743-2.4973-32.3692-15.7292-41.8032-13.187-25.4058,6.8458-21.56,54.9226-28.5779,76.766-5.6389,17.5513-18.9961,72.6007-18.8251,73.8881l100.46139,32.5625C413.123,607.01666,410.79546,598.42826,410.61816,589.522Z" class="colorb17f83 svgShape"/><path fill="#f4a086" d="M428.96816,428.15936c-4.2423-11.8273-15.3465-16.9835-21.4324-15.8209-2.2053,19.7457-2.5704,20.9349-12.10749,29.7394-2.81469,10.5419,24.99819,20.7599,29.36549,16.6365C424.83916,457.10086,431.16166,434.27516,428.96816,428.15936Z" class="colorf4a086 svgShape"/><path fill="#222b56" fill-rule="evenodd" d="M443.37746,402.301c1.583,1.9423,3.1038,4.2315,2.96012,6.7608a11.34315,11.34315,0,0,1-2.22862,5.2841q-2.0229,3.1482-4.0459,6.2964c-1.3156-2.9009-1.4486-6.1931-1.7763-9.3757s-.9489-6.5172-2.9905-8.9342c-1.2653-1.4981-3.1378-2.8291-3.1418-4.8127-.006-2.8481,3.0662-3.444,4.8014-1.8712A61.29789,61.29789,0,0,1,443.37746,402.301Z" class="color222b56 svgShape"/><path fill="#f7b690" d="M413.142,399.59056c7.2724-8.8958,21.6577-6.9952,26.6613,4.2677,4.5814,10.3125-1.048,31.8001-5.2575,36.2136-7.3613,7.7178-22.499-1.581-24.5231-7.5146C407.058,423.866,407.02658,407.07136,413.142,399.59056Z" class="colorf7b690 svgShape"/><path fill="#222b56" fill-rule="evenodd" d="M416.82546,402.61576c.4105,1.654-3.7737,23.4363-4.3552,23.1756-2.0708-.9283-4.615-7.1148-8.56168-6.9602-1.26162.0494-3.01221.8561-3.01311-1.7374-.0062-16.4282-.6511-15.6033,2.22449-17.0535C409.45846,396.84336,416.09336,399.66526,416.82546,402.61576Z" class="color222b56 svgShape"/><path fill="#f7b690" d="M400.485,416.25356a10.59774,10.59774,0,0,0,2.06179,7.4943c4.5712,5.9977,9.4163-1.8963,8.423-6.8897C409.78546,410.90506,401.28227,409.058,400.485,416.25356Z" class="colorf7b690 svgShape"/><path fill="#222b56" fill-rule="evenodd" d="M436.21958,405.236c-.387,1.4334-1.20682,3.009-2.64062,3.2169-1.4963.217-15.1356-11.509-16.0028-11.6155-.8671-.1067.127,5.9891-.8363,6.6432-.8244.5597-1.9156.1376-2.8289-.2498-4.0226-1.7059-8.4453-1.5484-12.793-1.3567a8.451,8.451,0,0,1,.7725-4.7796,12.44468,12.44468,0,0,1,2.57269-2.972c4.3159-3.8882,9.8083-6.7789,15.5449-6.576a27.47852,27.47852,0,0,1,9.9176,2.5011C442.04716,395.33616,436.80876,403.05466,436.21958,405.236Z" class="color222b56 svgShape"/><path fill="#f7b690" d="M369.16417,494.62576l-35.009,3.3532a336.15742,336.15742,0,0,0,3.3819,47.5081l29.23951-3.0081C367.05007,526.60806,367.877,510.83376,369.16417,494.62576Z" class="colorf7b690 svgShape"/><path fill="#b17f83" fill-rule="evenodd" d="M372.01007,470.80926c1.4601-13.7121,11.80951-33.8813-3.0119-40.417-13.668-6.0274-26.3758,3.3878-29.142,16.6958a284.95,284.95,0,0,0-5.7012,57.428l38.2021-1.6194C373.14467,492.98166,370.90647,481.17216,372.01007,470.80926Z" class="colorb17f83 svgShape"/><path fill="#f7b690" d="M366.93087,535.57166l-29.3938,9.9154c1.5824,3.3967,30.2834,52.9337,44.7369,70.489,2.4108,2.9276,6.3443,6.06,9.4298,3.9027,2.5483-1.7817,2.6931-5.8709,1.4767-8.7812A672.4545,672.4545,0,0,1,366.93087,535.57166Z" class="colorf7b690 svgShape"/><path fill="#222b56" fill-rule="evenodd" d="M401.48537,403.10156a3.87223,3.87223,0,0,0-3.1974,2.485,10.54262,10.54262,0,0,1,3.8962-9.1316c-1.7017.2314-2.998-1.8913-2.63059-3.6143a6.83617,6.83617,0,0,1,3.23748-3.9364,24.12636,24.12636,0,0,1,16.1374-3.862q.1572-1.112.3145-2.2237a17.366,17.366,0,0,1,8.9389,5.236q.15435-.98115.30872-1.9627,3.68877,2.3043,7.37758,4.6088a.79631.79631,0,0,1,.4316-1.3073,25.87878,25.87878,0,0,1,9.3349,17.5579,29.16684,29.16684,0,0,0-10.9214-8.1419c-6.2745-2.6712-13.3935-3.0542-19.3443-6.4177.8212,3.4504-2.55338,7.1847-5.9632,6.5989q.876-.913,1.7523-1.8257Z" class="color222b56 svgShape"/><path fill="#f7b690" d="M399.837,604.01066c2.53439.5946,4.49249,2.6,6.30269,4.5171q3.93465,4.16685,7.8694,8.3337c1.0543,1.1166,2.1913,2.6594,1.5548,4.0709-.5726,1.2697-2.3494,1.5105-3.55228.8543a7.75186,7.75186,0,0,1-2.66332-3.1119,4.61315,4.61315,0,0,1-4.608,3.9969q-1.53252-1.71855-3.06539-3.4372c-1.9597,2.4931-5.6132,2.4194-8.7189,2.1234-5.0532-.4817-11.3129-2.1493-7.6749-8.1565C387.93087,608.826,394.37827,602.72976,399.837,604.01066Z" class="colorf7b690 svgShape"/><polygon fill="#616d7d" points="719.521 621.908 759.662 621.908 779.733 576.404 739.592 576.404 719.521 621.908" class="color616d7d svgShape"/><polygon fill="#7590a2" points="724.033 621.908 764.174 621.908 784.245 576.404 744.104 576.404 724.033 621.908" class="color7590a2 svgShape"/><path fill="#758798" d="M716.28246,615.97126H793.332a2.96813,2.96813,0,0,1,2.9681,2.9683h0a2.968,2.968,0,0,1-2.9681,2.9681h-77.0495a2.96819,2.96819,0,0,1-2.9683-2.9681h0A2.9683,2.9683,0,0,1,716.28246,615.97126Z" class="color758798 svgShape"/><path fill="#616d7d" d="M834.57905,591.85336c7.4168,0,12.5983-6.0347,11.5499-13.4515l-17.427-123.2668a16.04171,16.04171,0,0,0-15.3549-13.4531H654.83758c-7.417,0-12.59852,6.0348-11.54972,13.4523l17.427,123.2676a16.041,16.041,0,0,0,15.3532,13.4515Z" class="color616d7d svgShape"/><path fill="#758798" d="M841.91358,591.85336c7.41677,0,12.59847-6.0347,11.54987-13.4515l-17.427-123.2668a16.0417,16.0417,0,0,0-15.35487-13.4531H662.17206c-7.4168,0-12.59848,6.0348-11.5497,13.4523l17.4269,123.2676a16.04108,16.04108,0,0,0,15.35332,13.4515Z" class="color758798 svgShape"/><path fill="#f7f6f0" d="M840.51258,581.94576a6.60734,6.60734,0,0,0,6.68907-7.7905l-16.2265-114.7744a9.2789,9.2789,0,0,0-8.89257-7.7912H663.573a6.60725,6.60725,0,0,0-6.689,7.7904l16.2264,114.7752a9.27862,9.27862,0,0,0,8.892,7.7905Z" class="colorf7f6f0 svgShape"/><path fill="#bccace" d="M667.11358 478.88516h158.957a2.44027 2.44027 0 002.47027-2.8853l-1.0534-7.3222a3.44776 3.44776 0 00-3.3006-2.8853H665.22976a2.44032 2.44032 0 00-2.47018 2.8853l1.05358 7.3222A3.44739 3.44739 0 00667.11358 478.88516zM816.012 556.28856h21.0102a2.59724 2.59724 0 002.6289-3.071l-9.4682-65.8055a3.66908 3.66908 0 00-3.5126-3.071h-21.0102a2.59738 2.59738 0 00-2.6291 3.071l9.4682 65.8055A3.66937 3.66937 0 00816.012 556.28856zM675.86636 535.37616h55.8598a2.59712 2.59712 0 002.6289-3.0709l-6.4592-44.8932a3.66927 3.66927 0 00-3.5127-3.071h-55.8598a2.59738 2.59738 0 00-2.6291 3.071l6.45932 44.8932A3.66906 3.66906 0 00675.86636 535.37616zM673.89936 543.04856c-.26178-1.8196.8074-3.2948 2.38822-3.2948h56.27708a3.70785 3.70785 0 013.3362 3.2948l3.5531 24.6946H677.45258zM739.84966 519.98716c-.2619-1.8196.8074-3.2948 2.3881-3.2948h21.4274a3.70812 3.70812 0 013.3363 3.2948l6.87112 47.756H746.72076zM814.07505 564.16976c-.2619-1.8196.8074-3.2948 2.3881-3.2948h21.42743a3.70812 3.70812 0 013.33637 3.2948l.5141 3.5734h-27.1518zM778.95146 531.19376h21.01019a2.59738 2.59738 0 002.6291-3.071l-5.85759-40.7107a3.6692 3.6692 0 00-3.5128-3.071h-21.01a2.59728 2.59728 0 00-2.6291 3.071l5.8576 40.7107A3.6689 3.6689 0 00778.95146 531.19376zM761.87266 484.34106l3.57892 24.8741c.26178 1.8199-.80742 3.2948-2.38822 3.2948h-21.4273a3.70794 3.70794 0 01-3.3364-3.2948l-3.5788-24.8741zM775.98758 538.671c-.26192-1.8196.80738-3.2948 2.38808-3.2948h21.42759a3.70793 3.70793 0 013.3362 3.2948l4.183 29.0722H780.17066z" class="colorbccace svgShape"/><polygon fill="#979dfe" points="816.195 503.029 828.796 503.029 826.71 488.524 814.108 488.524 816.195 503.029" class="color979dfe svgShape"/><path fill="#f7f6f0" d="M809.05095,507.24426l.3585,2.4907h20.352l-.3584-2.4907Zm21.0244,4.6723h-20.3522l.35843,2.4908h20.35207Zm.67223,4.6724h-20.352l.35837,2.4909h20.352Zm.67237,4.6725h-20.3521l.3583,2.4908h20.352Zm.6721,4.6722h-9.9426l.3584,2.4907h9.94273Z" class="colorf7f6f0 svgShape"/><polygon fill="#fdd247" fill-rule="evenodd" points="782.745 503.029 795.347 503.029 793.26 488.524 780.658 488.524 782.745 503.029" class="colorfdd247 svgShape"/><path fill="#f7f6f0" d="M775.60126,507.24426l.35832,2.4907h20.352l-.35822-2.4907Zm21.02432,4.6723H776.27346l.3585,2.4908h20.352Zm.67228,4.6724h-20.352l.3582,2.4909h20.3521Zm.6722,4.6725h-20.352l.3584,2.4908h20.352Zm.67239,4.6722h-9.94269l.3585,2.4907h9.94239Z" class="colorf7f6f0 svgShape"/><polygon fill="#70a0fe" points="752.982 535.381 765.583 535.381 763.496 520.875 750.894 520.875 752.982 535.381" class="color70a0fe svgShape"/><path fill="#f7f6f0" d="M745.83726 539.59556l.3585 2.4908h20.352l-.3585-2.4908zm21.0244 4.6724h-20.352l.3582 2.4907h20.3523zm.6722 4.6723h-20.3521l.3585 2.4908h20.352zm.6724 4.6724h-20.3521l.3583 2.4907h20.352zm.6721 4.6723H758.936l.3582 2.4908h9.9427zM738.21316 486.60666l.35842 2.4908h20.352l-.35842-2.4908zm21.02442 4.6724H738.88546l.3585 2.4909h20.352zm.67208 4.6723H750.458l.3583 2.491h9.4519z" class="colorf7f6f0 svgShape"/><polygon fill="#70a0fe" points="672.76 503.029 726.345 503.029 724.258 488.524 670.673 488.524 672.76 503.029" class="color70a0fe svgShape"/><path fill="#f7f6f0" d="M673.36626,507.24426l.3584,2.4907h53.5854l-.3584-2.4907Zm54.2577,4.6723h-31.7851l.3584,2.4908h31.785Z" class="colorf7f6f0 svgShape"/><polygon fill="#818bea" fill-rule="evenodd" points="790.117 554.259 802.718 554.259 800.631 539.754 788.029 539.754 790.117 554.259" class="color818bea svgShape"/><path fill="#f7f6f0" d="M782.97236,558.47456l.3584,2.4907h20.35209l-.3585-2.4907Zm21.02422,4.6723H790.91126l.3585,2.4908H804.355Z" class="colorf7f6f0 svgShape"/><polygon fill="#66bcd5" fill-rule="evenodd" points="822.571 547.344 835.173 547.344 833.085 532.839 820.484 532.839 822.571 547.344" class="color66bcd5 svgShape"/><path fill="#f7f6f0" d="M815.42715,551.55936l.3582,2.4907h20.3523l-.3585-2.4907Z" class="colorf7f6f0 svgShape"/><path fill="#b164a5" d="M1010.92088,555.51066l-.0086.1047a8.29681,8.29681,0,0,0-9.5804,7.4669l-14.1753,148.9906a5.90061,5.90061,0,0,1-5.8996,5.3733h-89.6614a8.36455,8.36455,0,0,0,0,16.7291h89.661a22.60566,22.60566,0,0,0,17.1975-7.9389c4.9311.3666,24.0335,2.0027,24.0335,2.0027l19.5743-6.2281,17.7856-166.5003Z" class="colorb164a5 svgShape"/><path fill="#c67dbd" d="M1031.44618,717.44616a5.90071,5.90071,0,0,0,5.8997-5.3733l14.1752-148.9906a8.364,8.364,0,0,1,8.3264-7.5716h0a8.36368,8.36368,0,0,1,8.3262,9.1559l-14.171,148.9655a22.65533,22.65533,0,0,1-22.5569,20.5432H941.785a8.36427,8.36427,0,0,1-8.3645-8.3644h0a8.36452,8.36452,0,0,1,8.3645-8.3647Z" class="colorc67dbd svgShape"/><rect width="13.602" height="126.427" x="967.096" y="734.175" fill="#babad3" transform="rotate(180 973.897 797.389)" class="colorbabad3 svgShape"/><path fill="#4b4b6d" d="M1022.37088 860.60206h0a13.60146 13.60146 0 00-13.6015-13.6013H939.02475a13.60146 13.60146 0 00-13.6015 13.6013h96.94763zM967.68885 747.18456h12.41653a12.45819 12.45819 0 0010.4791-5.7205l4.6868-7.2888H952.52285l4.6868 7.2888A12.45836 12.45836 0 00967.68885 747.18456z" class="color4b4b6d svgShape"/><path fill="#f4a086" d="M855.41935,610.81806c6.5747-3.0992,44.2647-8.3645,50.9279-11.268,9.181-4.0006,16.1382-14.7856,20.6482-23.7271a164.76834,164.76834,0,0,0,6.4629-15.2866L961.626,575.42a166.12076,166.12076,0,0,1-12.7262,18.7625c-7.1608,9.1326-15.4579,17.648-25.6941,23.1164-10.6702,5.7005-54.8235,6.3911-66.773,4.5039C846.80385,619.806,848.84485,613.91716,855.41935,610.81806Z" class="colorf4a086 svgShape"/><path fill="#858bed" d="M953.33825,529.95916c7.4371-4.0268,22.69793-3.1734,23.43493,7.5393.4336,6.3059-3.18683,13.1912-5.58533,18.8584a166.8846,166.8846,0,0,1-9.1804,18.429c-.1236.2136-.2571.4209-.3815.6341l-31.0379-12.944C937.40705,553.88556,943.79725,535.125,953.33825,529.95916Z" class="color858bed svgShape"/><path fill="#f4a086" d="M828.33765 608.45816a13.09942 13.09942 0 00-4.39407 8.9049c-.07383 3.397 2.69677 10.2046 5.221 7.9301 2.08537-1.8791 2.60667-5.0226 5.41257-4.9382 2.8059.0847 5.3203 1.6349 7.9291 2.6714 7.6996 3.0586 31.0202-1.0904 21.0978-13.2833C856.004 600.40386 836.63465 600.55516 828.33765 608.45816zM776.78136 839.30786c-1.592 2.39-3.7195 5.0575-6.5837 4.99-4.9449-.1166-5.3048-7.1731-4.0665-11.9244q2.0037-7.68735 4.0071-15.3746l15.5301 4.539C783.97436 827.98256 779.79166 834.78866 776.78136 839.30786z" class="colorf4a086 svgShape"/><path fill="#0a3c5f" fill-rule="evenodd" d="M815.94105,690.912c12.4963-13.8032,90.6143-30.9615,127.3517-42.2006,27.4342-8.3929,55.66563-13.1122,59.84323,23.9407a43.17544,43.17544,0,0,1-20.0253,40.8103c-14.91333,9.1584-33.66123,8.3-51.12393,7.144-33.2938-2.2042-53.7108-3.5558-87.0048-5.76-3.1838,43.5715-40.2119,59.1694-56.78969,107.4293l-24.9052-5.078C778.38676,794.47586,809.73258,698.86756,815.94105,690.912Z" class="color0a3c5f svgShape"/><path fill="#0a3c5f" fill-rule="evenodd" d="M1009.35708,713.46256c-14.9132,9.1584-33.661,8.2998-51.12373,7.1438q-51.71475-3.42345-103.4293-6.8472c-5.5034-.3643-11.6793-1.0643-15.1118-5.3813-4.0086-5.0417-2.0682-12.9204,2.4955-17.4659s10.9843-6.5833,17.14383-8.4686q55.1038-16.86585,110.20777-33.732c27.43433-8.3929,55.66573-13.1122,59.84333,23.9409A43.17567,43.17567,0,0,1,1009.35708,713.46256Z" class="color0a3c5f svgShape"/><path fill="#979dfe" d="M1008.62228,557.73176c-1.8796,14.0304-7.2693,27.6348-7.0419,41.7888a53.79666,53.79666,0,0,0,16.7364,37.8622c6.366,5.9835,15.1062,12.7766,12.8268,21.2105-2.0506,7.5867-11.5366,9.8339-19.3453,10.7212-17.0271,1.9345-36.455,3.1311-48.9807-8.5639-7.67043-7.1616-10.98963-17.7511-13.43063-27.9574a282.93419,282.93419,0,0,1-7.556-55.164c-.59337-15.8203.4631-32.6859,9.5574-45.645,9.0609-12.9116,19.2299-21.4731,34.05693-16.9216C1002.305,531.60146,1010.48638,543.81686,1008.62228,557.73176Z" class="color979dfe svgShape"/><path fill="#979dfe" fill-rule="evenodd" d="M783.813,828.51726c-.966,1.6923-5.4227,2.4836-7.2603,2.5572-1.4513.0583-8.0994-2.971-9.5359-2.4751-1.0344.357-4.89118,14.2326-9.6806,17.1756s-10.1011,4.5663-15.1948,6.7551a16.609,16.609,0,0,0-5.009,2.9875c-1.4321,1.3592-2.4383,3.3197-2.1269,5.0388a2.80616,2.80616,0,0,0,.1486.4318h31.3293c.9105-1.0685,1.7308-2.2291,2.5284-3.3707q4.298-6.15225,8.59582-12.3044c.90288,4.4813,1.68378,9.7359,2.55008,15.6751h3.4992C784.77416,856.21066,787.86306,833.48016,783.813,828.51726Z" class="color979dfe svgShape"/><path fill="#f4a086" d="M853.694,839.30786c-.6113,2.39-1.5711,5.0575-3.857,4.99-3.94637-.1166-6.1479-7.1731-6.4581-11.9244q-.5019-7.68735-1.0036-15.3746l13.5279,4.539C856.31265,827.98256,854.84975,834.78866,853.694,839.30786Z" class="colorf4a086 svgShape"/><path fill="#0a3c5f" fill-rule="evenodd" d="M837.40485,702.37486c2.9091-19.2641,32.2991-13.6422,35.2089.2047,9.3139,43.5712-14.4959,71.4362-14.51217,119.6959l-21.09653-5.078C842.54705,795.42166,835.23345,716.75336,837.40485,702.37486Z" class="color0a3c5f svgShape"/><path fill="#979dfe" fill-rule="evenodd" d="M856.58035,828.51726c-.966,1.6923-5.4227,2.4836-7.26,2.5572-1.4516.0583-8.0995-2.971-9.5362-2.4751-1.0344.357-4.891,14.2326-9.6803,17.1756s-10.10127,4.5663-15.1948,6.7551a16.60676,16.60676,0,0,0-5.0093,2.9875c-1.4321,1.3592-2.4381,3.3197-2.1269,5.0388a2.80953,2.80953,0,0,0,.1488.4318h31.3291c.9107-1.0685,1.731-2.2291,2.5284-3.3707q4.298-6.15225,8.5958-12.3044c.9031,4.4813,1.684,9.7359,2.5503,15.6751h3.4992C857.54185,856.21066,860.63075,833.48016,856.58035,828.51726Z" class="color979dfe svgShape"/><path fill="#f7b690" d="M873.35735,609.14516c6.5745-3.0992,44.2645-6.6916,50.9279-9.5951,9.1808-4.0006,16.138-14.7856,20.648-23.7271a164.64068,164.64068,0,0,0,6.4629-15.2866L979.56378,575.42a166.12474,166.12474,0,0,1-12.7262,18.7625c-7.16063,9.1326-15.45773,17.648-25.69383,23.1164-10.6705,5.7005-54.8238,4.718-66.7733,2.831C864.74165,618.13286,866.78265,612.24406,873.35735,609.14516Z" class="colorf7b690 svgShape"/><path fill="#979dfe" d="M956.48045,548.09816c3.323-7.2138,7.8112-14.3575,14.7956-18.139,7.43713-4.0268,22.69793-3.1734,23.43493,7.5393.4337,6.3059-3.1868,13.1912-5.5853,18.8584a166.8846,166.8846,0,0,1-9.1804,18.429c-.1236.2136-.2571.4209-.3815.6341l-31.03793-12.944C950.13145,558.29146,954.60665,552.16586,956.48045,548.09816Z" class="color979dfe svgShape"/><path fill="#f7b690" d="M846.40115,596.09056a13.10043,13.10043,0,0,0-7.1537,6.8872c-1.2215,3.1708-.9234,10.5145,2.2226,9.2308,2.5992-1.0607,4.1554-3.8412,6.7664-2.8101s4.4508,3.342,6.5536,5.2015c6.206,5.4883,29.5519,9.4935,24.352-5.3418C875.15925,597.89516,856.88615,591.46946,846.40115,596.09056Z" class="colorf7b690 svgShape"/><path fill="#f4a086" d="M982.57,482.77516c-1.312-2.4729-15.70213,4.9453-16.5574,6.7217-.85523,1.7766-1.76193,21.879-4.83823,34.4286-.6639,2.7081,26.17723-5.584,24.27093-8.8629C982.35428,509.74626,979.19718,489.47216,982.57,482.77516Z" class="colorf4a086 svgShape"/><path fill="#f7b690" d="M941.08975,464.656c4.9704-20.6204,33.17883-16.2716,39.87793-14.2152,6.6993,2.0562,6.8709,11.5328,7.5169,18.5105a17.62529,17.62529,0,0,1-3.7236,12.0079c-2.4634,3.2868-13.19273,8.2371-13.79953,8.3671-3.9816,6.863-10.4541,14.7114-17.0368,14.6148-2.9649-.0432-5.654-1.9448-7.3959-4.3446a28.82813,28.82813,0,0,1-3.6237-8.0831C940.02365,482.77106,938.93285,473.60456,941.08975,464.656Z" class="colorf7b690 svgShape"/><path fill="#222b56" fill-rule="evenodd" d="M989.91218,476.64026a20.56192,20.56192,0,0,0,4.8579-10.3149,19.24687,19.24687,0,0,0-3.4758-12.9238c-4.5432-6.7515-16.27623-15.4663-25.7567-15.6586-10.12663-.2054-27.52,9.879-25.86943,22.41.4939,3.7487,2.553,3.7753,6.1395,4.9727,4.7255,1.5777,11.0668,2.6681,14.9858,5.7437,4.6874,3.6785,2.6034,12.55,12.1985,15.4328,3.10133.9318,6.28843,6.4094,8.34843,10.669C983.78888,494.18866,987.537,479.50946,989.91218,476.64026Z" class="color222b56 svgShape"/><path fill="#222b56" fill-rule="evenodd" d="M998.88188,449.42506c5.1692-1.3624,10.9787-1.1956,15.4995,1.6576a21.939,21.939,0,0,1,6.724,7.3715,43.14108,43.14108,0,0,1,6.0938,25.7841c-1.3636,16.4754-12.1594,31.5855-10.9651,48.074a16.45079,16.45079,0,0,0,1.7993,6.9197,8.19848,8.19848,0,0,0,5.5483,4.2196,24.14076,24.14076,0,0,1-22.5357-7.1363c-3.7406-4.0882-5.9319-9.3644-7.4317-14.6987a72.34851,72.34851,0,0,1,.3093-39.9811c.9023-3.0285,2.0142-6.052,2.1141-9.2107.0987-3.1161-.9898-6.5053-3.7086-8.2712-2.1603-1.4033-6.1389-1.0729-6.703-4.1714C984.51408,453.87516,994.76988,450.50876,998.88188,449.42506Z" class="color222b56 svgShape"/><path fill="#f7b690" d="M977.15608,478.22026a3.51041,3.51041,0,0,1,.9183,1.8098,8.10126,8.10126,0,0,1-6.23713,9.7813,3.446,3.446,0,0,1-2.4885-.2441c-2.51117-1.5305-1.2373-6.8592-.0305-8.9248C970.57105,478.49826,975.01705,476.23116,977.15608,478.22026Z" class="colorf7b690 svgShape"/><rect width="6.268" height="227.136" x="822.412" y="634.379" fill="#d0d9df" transform="rotate(-5.288 825.546 747.946)" class="colord0d9df svgShape"/><rect width="227.136" height="6.268" x="319.431" y="744.813" fill="#d0d9df" transform="rotate(-84.717 433 747.947)" class="colord0d9df svgShape"/><path fill="#62c1c5" d="M387.52027,634.86086H871.02445a6.4764,6.4764,0,0,0,6.4765-6.4765h0a6.47664,6.47664,0,0,0-6.4765-6.4767H387.52027a6.47664,6.47664,0,0,0-6.4765,6.4767h0A6.4764,6.4764,0,0,0,387.52027,634.86086Z" class="color62c1c5 svgShape"/><path fill="#6370c7" d="M249.98737,555.51066l.0085.1047a8.29672,8.29672,0,0,1,9.5803,7.4669l14.17541,148.9906a5.90069,5.90069,0,0,0,5.89969,5.3733h89.6612a8.36455,8.36455,0,1,1,0,16.7291h-89.6608a22.60566,22.60566,0,0,1-17.1975-7.9389c-4.9311.3666-24.0337,2.0027-24.0337,2.0027l-19.5741-6.2281-17.7857-166.5003Z" class="color6370c7 svgShape"/><path fill="#828feb" d="M229.46177,717.44616a5.90049,5.90049,0,0,1-5.8994-5.3733l-14.1755-148.9906a8.36358,8.36358,0,0,0-8.3262-7.5716h0a8.3638,8.3638,0,0,0-8.3262,9.1559l14.1709,148.9655a22.65541,22.65541,0,0,0,22.5569,20.5432h89.661a8.36438,8.36438,0,0,0,8.3644-8.3644h0a8.36463,8.36463,0,0,0-8.3644-8.3647Z" class="color828feb svgShape"/><rect width="13.601" height="126.427" x="280.21" y="734.175" fill="#babad3" class="colorbabad3 svgShape"/><path fill="#4b4b6d" d="M238.53727 860.60206h0a13.60154 13.60154 0 0113.6016-13.6013h69.7445a13.60129 13.60129 0 0113.6013 13.6013h-96.9474zM293.21937 747.18456h-12.4165a12.45811 12.45811 0 01-10.4792-5.7205l-4.6867-7.2888h42.7481l-4.68649 7.2888A12.45878 12.45878 0 01293.21937 747.18456z" class="color4b4b6d svgShape"/><path fill="#f4a086" d="M405.48886,610.81806c-6.57479-3.0992-44.26479-8.3645-50.92809-11.268-9.1808-4.0006-16.138-14.7856-20.648-23.7271a164.6434,164.6434,0,0,1-6.4629-15.2866L299.28217,575.42a166.12158,166.12158,0,0,0,12.7263,18.7625c7.1605,9.1326,15.4579,17.648,25.6938,23.1164,10.6704,5.7005,54.8238,6.3911,66.77331,4.5039C414.10426,619.806,412.06336,613.91716,405.48886,610.81806Z" class="colorf4a086 svgShape"/><path fill="#fdd247" fill-rule="evenodd" d="M307.57,529.95916c-7.4371-4.0268-22.6979-3.1734-23.4349,7.5393-.4337,6.3059,3.1867,13.1912,5.5853,18.8584a166.867,166.867,0,0,0,9.1804,18.429c.1235.2136.2571.4209.3814.6341l31.038-12.944C323.50107,553.88556,317.11067,535.125,307.57,529.95916Z" class="colorfdd247 svgShape"/><path fill="#f4a086" d="M432.57026 608.45816a13.09993 13.09993 0 014.3944 8.9049c.0738 3.397-2.6968 10.2046-5.221 7.9301-2.0857-1.8791-2.6067-5.0226-5.4127-4.9382-2.8059.0847-5.3202 1.6349-7.9291 2.6714-7.6996 3.0586-31.02009-1.0904-21.09769-13.2833C404.90426 600.40386 424.27358 600.55516 432.57026 608.45816zM484.12686 839.30786c1.592 2.39 3.7195 5.0575 6.58372 4.99 4.94488-.1166 5.30478-7.1731 4.06638-11.9244q-2.00355-7.68735-4.0073-15.3746l-15.5298 4.539C476.93366 827.98256 481.11646 834.78866 484.12686 839.30786z" class="colorf4a086 svgShape"/><path fill="#0a3c5f" fill-rule="evenodd" d="M444.96686,690.912c-12.49628-13.8032-90.61409-30.9615-127.35139-42.2006-27.4345-8.3929-55.6658-13.1122-59.8433,23.9407a43.17531,43.17531,0,0,0,20.02541,40.8103c14.91329,9.1584,33.661,8.3,51.12369,7.144,33.294-2.2042,53.711-3.5558,87.00469-5.76,3.1841,43.5715,40.2121,59.1694,56.7899,107.4293l24.9053-5.078C482.52146,794.47586,451.17566,698.86756,444.96686,690.912Z" class="color0a3c5f svgShape"/><path fill="#0a3c5f" fill-rule="evenodd" d="M251.55087,713.46256c14.9133,9.1584,33.661,8.2998,51.1239,7.1438q51.7146-3.42345,103.42939-6.8472c5.5031-.3643,11.6793-1.0643,15.1118-5.3813,4.00862-5.0417,2.0679-12.9204-2.4957-17.4659s-10.9842-6.5833-17.14359-8.4686q-55.10413-16.86585-110.2079-33.732c-27.4344-8.3929-55.6656-13.1122-59.84319,23.9409A43.1756,43.1756,0,0,0,251.55087,713.46256Z" class="color0a3c5f svgShape"/><path fill="#fdd247" fill-rule="evenodd" d="M252.286,557.73176c1.87961,14.0304,7.2693,27.6348,7.0419,41.7888a53.79717,53.79717,0,0,1-16.7365,37.8622c-6.3659,5.9835-15.1061,12.7766-12.8267,21.2105,2.0506,7.5867,11.5365,9.8339,19.3452,10.7212,17.0272,1.9345,36.455,3.1311,48.9808-8.5639,7.6703-7.1616,10.9894-17.7511,13.4306-27.9574a282.94181,282.94181,0,0,0,7.556-55.164c.5934-15.8203-.4634-32.6859-9.5575-45.645-9.0608-12.9116-19.2299-21.4731-34.057-16.9216C258.60317,531.60146,250.42167,543.81686,252.286,557.73176Z" class="colorfdd247 svgShape"/><path fill="#222b54" fill-rule="evenodd" d="M477.09516,828.51726c.9661,1.6923,5.4227,2.4836,7.2601,2.5572,1.4516.0583,8.0997-2.971,9.5362-2.4751,1.0343.357,4.89112,14.2326,9.6805,17.1756,4.7892,2.943,10.1011,4.5663,15.1948,6.7551a16.60822,16.60822,0,0,1,5.0091,2.9875c1.4321,1.3592,2.438,3.3197,2.1268,5.0388a2.78518,2.78518,0,0,1-.1488.4318h-31.3291c-.9104-1.0685-1.7307-2.2291-2.5283-3.3707q-4.29795-6.15225-8.5958-12.3044c-.9032,4.4813-1.6838,9.7359-2.5503,15.6751h-3.4992C476.134,856.21066,473.04486,833.48016,477.09516,828.51726Z" class="color222b54 svgShape"/><path fill="#f4a086" d="M407.21416,839.30786c.6112,2.39,1.5709,5.0575,3.8568,4.99,3.9465-.1166,6.1482-7.1731,6.4583-11.9244q.50175-7.68735,1.0035-15.3746l-13.5278,4.539C404.59558,827.98256,406.05836,834.78866,407.21416,839.30786Z" class="colorf4a086 svgShape"/><path fill="#0a3c5f" fill-rule="evenodd" d="M423.50336,702.37486c-2.9094-19.2641-32.29929-13.6422-35.20889.2047-9.314,43.5712,14.49589,71.4362,14.512,119.6959l21.0965-5.078C418.36116,795.42166,425.67476,716.75336,423.50336,702.37486Z" class="color0a3c5f svgShape"/><path fill="#222b54" fill-rule="evenodd" d="M404.32758,828.51726c.96608,1.6923,5.42288,2.4836,7.26028,2.5572,1.4513.0583,8.0994-2.971,9.5359-2.4751,1.0344.357,4.8912,14.2326,9.6806,17.1756s10.1011,4.5663,15.1948,6.7551a16.609,16.609,0,0,1,5.0093,2.9875c1.4319,1.3592,2.438,3.3197,2.1268,5.0388a2.8278,2.8278,0,0,1-.1488.4318h-31.3293c-.9104-1.0685-1.7308-2.2291-2.5283-3.3707q-4.29765-6.15225-8.5956-12.3044c-.9032,4.4813-1.684,9.7359-2.5503,15.6751h-3.4992C403.36636,856.21066,400.27747,833.48016,404.32758,828.51726Z" class="color222b54 svgShape"/><path fill="#f7b690" d="M387.55087,609.14516c-6.5748-3.0992-44.2648-6.6916-50.9279-9.5951-9.1808-4.0006-16.1381-14.7856-20.6482-23.7271a164.6962,164.6962,0,0,1-6.4627-15.2866L281.34437,575.42a166.10665,166.10665,0,0,0,12.7261,18.7625c7.1607,9.1326,15.4579,17.648,25.694,23.1164,10.6704,5.7005,54.8238,4.718,66.7733,2.831C396.16647,618.13286,394.12558,612.24406,387.55087,609.14516Z" class="colorf7b690 svgShape"/><path fill="#fdd247" fill-rule="evenodd" d="M304.42777,548.09816c-3.323-7.2138-7.8114-14.3575-14.7956-18.139-7.4371-4.0268-22.6979-3.1734-23.4349,7.5393-.4339,6.3059,3.1865,13.1912,5.58531,18.8584a166.79486,166.79486,0,0,0,9.18039,18.429c.1233.2136.2569.4209.3814.6341l31.038-12.944C310.77677,558.29146,306.30147,552.16586,304.42777,548.09816Z" class="colorfdd247 svgShape"/><path fill="#f7b690" d="M414.50706,596.09056a13.09984,13.09984,0,0,1,7.15352,6.8872c1.22138,3.1708.92358,10.5145-2.22242,9.2308-2.5992-1.0607-4.1555-3.8412-6.76658-2.8101-2.61092,1.031-4.45062,3.342-6.55342,5.2015-6.20629,5.4883-29.55189,9.4935-24.352-5.3418C385.749,597.89516,404.02206,591.46946,414.50706,596.09056Z" class="colorf7b690 svgShape"/><path fill="#f4a086" d="M278.33827,482.77516c1.3119-2.4729,15.7018,4.9453,16.5571,6.7217.8555,1.7766,1.7621,21.879,4.8383,34.4286.6638,2.7081-26.17709-5.584-24.2709-8.8629C278.55377,509.74626,281.71077,489.47216,278.33827,482.77516Z" class="colorf4a086 svgShape"/><path fill="#f7b690" d="M319.81837,464.656c-4.9706-20.6204-33.17879-16.2716-39.8779-14.2152-6.6993,2.0562-6.8711,11.5328-7.51689,18.5105a17.62429,17.62429,0,0,0,3.72369,12.0079c2.46331,3.2868,13.1925,8.2371,13.7994,8.3671,3.9814,6.863,10.4542,14.7114,17.0366,14.6148,2.965-.0432,5.65431-1.9448,7.3961-4.3446a28.82553,28.82553,0,0,0,3.6238-8.0831C320.88458,482.77106,321.97537,473.60456,319.81837,464.656Z" class="colorf7b690 svgShape"/><path fill="#f7b690" d="M283.752,478.22026a3.51034,3.51034,0,0,0-.9182,1.8098,8.10144,8.10144,0,0,0,6.2372,9.7813,3.44585,3.44585,0,0,0,2.4884-.2441c2.5113-1.5305,1.23721-6.8592.0306-8.9248C290.33717,478.49826,285.891,476.23116,283.752,478.22026Z" class="colorf7b690 svgShape"/><path fill="#222b56" fill-rule="evenodd" d="M254.52237,465.56406c3.8641-5.1325-.3829-27.8213,40.8481-27.8213,10.1289,0,27.52011,9.8792,25.8694,22.4099-.4937,3.7488-2.553,3.7753-6.1394,4.973-4.7254,1.5777-11.06689,2.6679-14.9858,5.7437-3.4862,2.7363-15.1016,53.3383-.3689,64.392-35.022,3.6539-51.9365,3.9348-56.4586-11.521C237.53658,504.08366,242.20367,481.92576,254.52237,465.56406Z" class="color222b56 svgShape"/><path fill="#a2d1eb" d="M452.69516,613.27346l-54.16629,4.3316a3.82915,3.82915,0,0,0-3.5239,3.8168h0a3.82921,3.82921,0,0,0,3.8292,3.8292h54.16629a3.829,3.829,0,0,0,3.829-3.8292v-4.3316A3.82889,3.82889,0,0,0,452.69516,613.27346Z" class="colora2d1eb svgShape"/><path fill="#f7b690" d="M723.99176,805.30426c.57282,5.3195.8922,10.9791-1.5539,15.7379-2.446,4.7585-8.6482,7.9811-13.3325,5.3954-2.64-1.4573-4.1556-4.297-5.5266-6.9829q-11.5479-22.62345-23.0958-45.2468c-6.3473-12.4351-12.8641-25.6292-12.0582-39.5672a33.02357,33.02357,0,0,1,6.2862-18.0036c3.4003-4.4927,10.7893-11.646,15.87262-6.3934,5.06218,5.2307,8.53668,14.3591,11.74068,20.8332a221.90269,221.90269,0,0,1,16.9636,46.9542A218.81169,218.81169,0,0,1,723.99176,805.30426Z" class="colorf7b690 svgShape"/><path fill="#fdd247" fill-rule="evenodd" d="M668.48636,737.59866a36.74357,36.74357,0,0,1,6.9949-20.0326c3.7834-4.9993,5.9959-17.5591,11.6521-11.7146,5.6327,5.8202,15.508,20.578,19.0731,27.7818a246.72618,246.72618,0,0,1,12.1818,29.2675l-36.907,17.8943C674.55546,767.20136,667.60726,752.79836,668.48636,737.59866Z" class="colorfdd247 svgShape"/><path fill="#f7b690" d="M722.83376,804.26716c-3.7441-4.5605-10.1945-6.1579-16.059-5.5065-5.8647.6517-11.3219,3.2138-16.6518,5.7448q-14.65785,6.9606-29.29838,13.9577-15.11778,7.2135-30.23582,14.4273c-1.5704.7493-3.2981,1.6745-3.8046,3.3392-.5421,1.783.6431,3.7286,2.2576,4.6599a11.93882,11.93882,0,0,0,5.4099,1.1795,159.77957,159.77957,0,0,0,66.9338-11.0922c6.1057-2.4261,14.7702-5.1067,19.7039-9.5911C725.80476,817.10016,726.99676,809.33776,722.83376,804.26716Z" class="colorf7b690 svgShape"/><path fill="#222b54" fill-rule="evenodd" d="M659.53916,838.25456c-11.2328-1.6443-64.54658-1.6443-75.77958,0-13.97012,2.0449-11.86752,19.4308-10.10742,29.8337,1.92042,11.35,4.2706,23.5382,12.6125,31.4707,8.1478,7.7481,62.6216,7.7481,70.7694,0,8.3421-7.9325,10.692-20.1207,12.61252-31.4707C671.40686,857.68536,673.50926,840.29946,659.53916,838.25456Z" class="color222b54 svgShape"/><path fill="#222b54" fill-rule="evenodd" d="M463.91006 885.93166c-5.86448 6.4673-9.6904 17.0743-4.60748 23.794 4.30628 5.6929 124.67518-5.5054 142.47588-5.5054 12.6482-16.1219 12.1478-40.6039-20.2635-57.1036-6.934-3.5299-14.549.1802-22.08338 1.7652C537.62576 853.46926 478.47666 869.86726 463.91006 885.93166zM724.18026 771.043c8.6972-.7566 18.2995 2.6239 22.5344 10.2582 3.463 6.2421 2.7203 14.1342-.1969 20.6494-2.9173 6.515-7.7535 11.9474-12.5147 17.2661-68.8277 76.8855-69.9414 80.3678-81.4474 83.4548-19.611 5.2614-43.2878-.0809-25.9045-45.1117C629.45306 850.30116 702.57636 772.92276 724.18026 771.043z" class="color222b54 svgShape"/><path fill="#f7b690" d="M662.93558,928.28176c4.582-2.6736,13.66748-14.484,24.30268-30.0388l-20.0176-7.0537C660.67626,914.41146,658.13116,931.08516,662.93558,928.28176Z" class="colorf7b690 svgShape"/><path fill="#0a3c5f" fill-rule="evenodd" d="M741.61316,772.32716c-12.21058-5.8899-24.2468-4.3547-33.9955,11.4452-13.1448,21.3039-30.7822,73.3-40.397,107.4169l22.9654,10.4069c14.5368-33.1754,43.1957-76.2032,54.2961-95.7475C750.70716,794.88936,751.24516,776.97326,741.61316,772.32716Z" class="color0a3c5f svgShape"/><path fill="#f7b690" d="M602.21958,906.58476l-9.93812,18.5803c14.8468.9801,26.7933,1.147,31.8296-.94C629.17646,922.126,619.06458,914.72216,602.21958,906.58476Z" class="colorf7b690 svgShape"/><path fill="#0a3c5f" fill-rule="evenodd" d="M484.69606,885.61736c-18.56548,0-27.7316,9.5454-27.7316,16.2686,0,11.4332,7.056,23.657,24.6373,23.657,22.3569,0,78.3729-.7616,112.7285,1.582l7.88932-20.5402C576.87086,894.33936,511.85206,885.61736,484.69606,885.61736Z" class="color0a3c5f svgShape"/><path fill="#0a3c5f" fill-rule="evenodd" d="M631.46258 921.61986c-.67642-.4238-5.79022-7.9639-9.12772-9.299-1.9368-.7745-4.55-2.0038-6.627-.9873-2.3531 1.1518-2.4614 4.4216-3.85828 6.3907a11.094 11.094 0 01-4.11442 3.4981l-3.248-4.3633c-11.495 5.3087-2.3639 18.6711-13.8938 24.171-2.7847 1.3283-5.8217 2.2594-8.2094 4.213-2.3879 1.9536-3.9001 5.5176-2.3111 8.1621a5.18915 5.18915 0 002.6309 2.109l37.14282-18.0217s.22278-7.516-.839-8.3618c1.26188.5099 4.21768 1.8847 5.56458 1.9047zM688.05826 929.26486c.121-3.0729-1.16068-5.6194-2.4799-6.3346s-3.3784-5.8668-6.10978-13.4059c-1.24942-3.4486-8.21072-4.4126-11.687 1.5243-1.12822 1.9264-2.17562 3.1763-3.44142 3.1341-1.061-.0357-2.2491-1.8796-3.2685-.6608-.8997 1.0758-1.142 3.9107-1.3699 5.931-.3929 3.4818-.7491 6.9872-1.1236 10.4794-.0829.7734-.164 1.5821-.1892 2.3784h29.0338A9.063 9.063 0 00688.05826 929.26486z" class="color0a3c5f svgShape"/><path fill="#f7b690" d="M519.307,805.30426c-.5728,5.3195-.892,10.9791,1.5541,15.7379,2.4458,4.7585,8.6482,7.9811,13.3324,5.3954,2.64-1.4573,4.1557-4.297,5.5267-6.9829q11.5479-22.62345,23.0958-45.2468c6.3471-12.4351,12.8641-25.6292,12.058-39.5672a33.02368,33.02368,0,0,0-6.2863-18.0036c-3.4002-4.4927-10.7892-11.646-15.8725-6.3934-5.0622,5.2307-8.5367,14.3591-11.7407,20.8332a221.914,221.914,0,0,0-16.9637,46.9542A218.8704,218.8704,0,0,0,519.307,805.30426Z" class="colorf7b690 svgShape"/><path fill="#fdd247" fill-rule="evenodd" d="M574.86646,737.59866a36.74673,36.74673,0,0,0-6.99488-20.0326c-3.78352-4.9993-5.996-17.5591-11.65242-11.7146-5.6327,5.8202-15.5077,20.578-19.0729,27.7818a246.72953,246.72953,0,0,0-12.1818,29.2675l36.9068,17.8943C568.79736,767.20136,575.74526,752.79836,574.86646,737.59866Z" class="colorfdd247 svgShape"/><path fill="#f7b690" d="M521.44866,806.90056c3.744-4.5604,10.1945-6.1581,16.0592-5.5065,5.8645.6515,11.32172,3.2136,16.6519,5.7448q14.65785,6.9606,29.2981,13.9575,15.1182,7.2138,30.236,14.4275c1.5704.7493,3.298,1.6743,3.8043,3.339.54242,1.7832-.643,3.7289-2.2575,4.6601a11.93449,11.93449,0,0,1-5.4097,1.1793,159.77626,159.77626,0,0,1-66.9338-11.092c-6.1059-2.426-14.7703-5.1069-19.7041-9.5911C518.47766,819.73336,517.28586,811.971,521.44866,806.90056Z" class="colorf7b690 svgShape"/><path fill="#fdd247" fill-rule="evenodd" d="M688.63876,707.51616c-3.5967-4.3542-9.0118-6.7301-14.3141-8.6746-15.5816-5.7136-51.3254-20.6653-52.6753-20.6376-1.3497-.0277-37.0937,14.924-52.6753,20.6376-5.3023,1.9445-10.71748,4.3204-14.3139,8.6746-4.7983,5.8088-5.4229,14.1545-3.6978,21.4888,1.72522,7.334,5.4876,13.9927,8.7727,20.7732a171.95507,171.95507,0,0,1,10.15052,26.2711,175.03143,175.03143,0,0,1,7.16,50.2502c-.02342,5.2048-2.78812,14.0095-1.18842,18.9216,2.0088,6.1679,12.6447,7.5655,18.0168,8.2571a164.02937,164.02937,0,0,0,27.7754,1.1918,164.02982,164.02982,0,0,0,27.7754-1.1918c5.372-.6916,16.0082-2.0892,18.0167-8.2571,1.5998-4.9121-1.165-13.7168-1.1881-18.9216a175.027,175.027,0,0,1,7.1597-50.2502,171.95335,171.95335,0,0,1,10.1506-26.2711c3.2851-6.7805,7.0476-13.4392,8.7727-20.7732C694.06146,721.67066,693.43706,713.325,688.63876,707.51616Z" class="colorfdd247 svgShape"/><path fill="#f4a086" d="M633.39866,676.38456c-1.4527-4.6756-2.2327-13.4188-5.1237-16.5289-1.7358-1.8678-10.79238-1.8678-12.5282,0-2.891,3.1101-3.671,11.8533-5.1238,16.5289-1.62738,5.2376-3.0455,11.52-1.3458,16.7007a9.632,9.632,0,0,0,6.2622,6.537c2.13122.6117,10.8117.6117,12.9429,0a9.63173,9.63173,0,0,0,6.2622-6.537C636.44416,687.90456,635.02616,681.62216,633.39866,676.38456Z" class="colorf4a086 svgShape"/><path fill="#f7b690" d="M641.19246,637.00606c-2.9152-8.4946-35.4481-8.4946-38.3632,0a43.01251,43.01251,0,0,0-1.3292,21.5001,42.44988,42.44988,0,0,0,7.7667,17.8514c2.5957,3.4404,5.9751,8.5117,9.7553,10.223h5.9776c3.7802-1.7113,7.1595-6.7826,9.7553-10.223a42.45114,42.45114,0,0,0,7.7667-17.8514A43.01342,43.01342,0,0,0,641.19246,637.00606Z" class="colorf7b690 svgShape"/><path fill="#0a3c5f" fill-rule="evenodd" d="M640.21206,659.53626c.403-2.0095,1.2872-3.8993,1.6784-5.9112s1.11-4.3227-.3521-5.7593c-1.3333,6.1631-3.94078,12.2506-5.9635,18.2232a9.15369,9.15369,0,0,1-1.87728,3.601,8.18423,8.18423,0,0,1-4.53632,1.9593c-1.8121.3189-6.5966-1.7197-7.1505-1.6858-.5538-.0339-5.33818,2.0047-7.1505,1.6858a8.18411,8.18411,0,0,1-4.5362-1.9593,9.15087,9.15087,0,0,1-1.8773-3.601,166.765,166.765,0,0,1-5.0397-18.2232c-1.4618,1.4366-1.667,3.7473-1.2758,5.7593.3909,2.0119,1.2754,3.9017,1.67832,5.9112q.04767.23775.084.4774a7.21881,7.21881,0,0,1-.39522,3.9638,3.97492,3.97492,0,0,0-.60478,1.5493,9.20468,9.20468,0,0,0,.34108,1.8569,45.645,45.645,0,0,0,2.3452,7.989,47.45678,47.45678,0,0,0,3.7314,7.4474q1.0947,1.77705,2.3404,3.455c.3471.4672,1.9763,3.1156,2.5224,3.1156l6.3566,1.8171h2.9603l6.3567-1.8171c.5457,0,2.1752-2.6484,2.5221-3.1156q1.24455-1.67565,2.3404-3.455a47.4578,47.4578,0,0,0,3.7316-7.4474,45.645,45.645,0,0,0,2.3452-7.989,9.21332,9.21332,0,0,0,.3412-1.8569,3.97547,3.97547,0,0,0-.6049-1.5493,7.2177,7.2177,0,0,1-.3952-3.9638Q640.16421,659.77426,640.21206,659.53626Z" class="color0a3c5f svgShape"/><path fill="#0a3c5f" fill-rule="evenodd" d="M653.86866,619.40936a14.61748,14.61748,0,0,0-17.1047-4.778c-2.4611,1.0668-4.6725,2.8528-7.2788,3.3982-3.0432.6366-6.1405-.5097-9.0421-1.6786s-5.949-2.3997-9.019-1.9325-6.0643,3.3165-5.6661,6.602a10.78425,10.78425,0,0,0-12.06638,3.2841,12.69015,12.69015,0,0,0-1.428,13.2147c1.25028,2.515,3.34638,4.5257,4.25988,7.2011,1.04412,3.0584-.15988,10.3999,3.4857,11.8052,2.8146,1.085,4.3807-21.2925,12.2758-21.8567a13.74029,13.74029,0,0,0,16.4185,2.692c1.9705-1.0982,4.0604-2.7576,6.1796-2.0421a8.20833,8.20833,0,0,1,4.0691,2.4192c2.20142,3.0411,1.5579,16.8931,4.5957,19.1787a40.15939,40.15939,0,0,0,1.9081-15.3272,9.9837,9.9837,0,0,0,4.04062-.7095c3.72818-1.5259,6.51288.1644,7.28238-4.021S656.37158,622.73256,653.86866,619.40936Z" class="color0a3c5f svgShape"/><path fill="#f7b690" d="M597.82726 657.95876a8.05828 8.05828 0 01-1.2161-4.7621c.218-1.6608 1.5943-3.2381 3.1536-3.0468a3.23319 3.23319 0 012.2715 1.7535 10.63132 10.63132 0 01.9454 2.9198q.5796 2.63475 1.1595 5.2689c.3253 1.4778.5188 3.353-.653 4.2118C601.34486 665.87426 598.68216 659.53986 597.82726 657.95876zM645.94506 657.95876a8.059 8.059 0 001.2161-4.7621c-.2181-1.6608-1.5943-3.2381-3.15358-3.0468a3.23339 3.23339 0 00-2.27162 1.7535 10.62845 10.62845 0 00-.9453 2.9198q-.5796 2.63475-1.1596 5.2689c-.3252 1.4778-.5188 3.353.653 4.2118C642.42736 665.87426 645.09006 659.53986 645.94506 657.95876z" class="colorf7b690 svgShape"/><path fill="#a2d1eb" d="M670.03766,847.13716h-98.6662a8.87708,8.87708,0,0,1-8.8456-8.134l-5.1217-60.9714a8.87691,8.87691,0,0,1,8.8456-9.62h108.9096a8.87673,8.87673,0,0,1,8.8456,9.62l-5.1217,60.9714A8.87673,8.87673,0,0,1,670.03766,847.13716Z" class="colora2d1eb svgShape"/><path fill="#3c79a6" d="M557.62326,780.64036a8.88067,8.88067,0,0,1,8.6265-6.7773h108.9096a8.88064,8.88064,0,0,1,8.6267,6.7773l.2189-2.6086a8.87662,8.87662,0,0,0-8.8456-9.62H566.24976a8.87691,8.87691,0,0,0-8.8456,9.62Z" class="color3c79a6 svgShape"/></svg>